<svg width="200" height="32" viewBox="0 0 200 32" fill="none" xmlns="http://www.w3.org/2000/svg">
<path d="M6.84 29.2C5.58667 29.2 4.44 29.04 3.4 28.72C2.36 28.4267 1.53333 27.92 0.92 27.2C0.306667 26.5067 0 25.5467 0 24.32C0 23.28 0.266667 22.2933 0.8 21.36C1.33333 20.4267 2.05333 19.6 2.96 18.88C3.86667 18.16 4.86667 17.6267 5.96 17.28C6.38667 17.1467 6.86667 17.0267 7.4 16.92C7.96 16.7867 8.45333 16.72 8.88 16.72C9.30667 16.72 9.52 16.92 9.52 17.32C9.52 17.6133 9.34667 17.8 9 17.88C8.57333 17.9867 8.13333 18.0667 7.68 18.12C7.25333 18.1467 6.81333 18.2267 6.36 18.36C5.45333 18.6533 4.6 19.1067 3.8 19.72C3.02667 20.3067 2.4 21 1.92 21.8C1.46667 22.5733 1.24 23.4 1.24 24.28C1.24 25.2667 1.50667 26.04 2.04 26.6C2.57333 27.16 3.26667 27.56 4.12 27.8C4.97333 28.04 5.89333 28.16 6.88 28.16C8.26667 28.16 9.8 27.9733 11.48 27.6C13.1867 27.2533 14.9067 26.7467 16.64 26.08C18.3733 25.4133 20.0133 24.6267 21.56 23.72C23.1067 22.8133 24.44 21.8133 25.56 20.72C26.68 19.6267 27.4533 18.4667 27.88 17.24C27.96 17.0267 28.0267 16.8 28.08 16.56C28.1333 16.32 28.16 16.08 28.16 15.84C28.16 15.0933 27.96 14.52 27.56 14.12C27.1867 13.6933 26.68 13.3867 26.04 13.2C25.4267 12.9867 24.76 12.8533 24.04 12.8C23.3467 12.7467 22.68 12.72 22.04 12.72C20.6533 12.72 19.2533 12.7867 17.84 12.92C16.4533 13.0267 15.0533 13.08 13.64 13.08C12.84 13.08 12 13.0133 11.12 12.88C10.24 12.7467 9.49333 12.4667 8.88 12.04C8.29333 11.6133 8 10.96 8 10.08C8 8.93333 8.36 7.92 9.08 7.04C9.8 6.16 10.7467 5.4 11.92 4.76C13.12 4.12 14.4133 3.6 15.8 3.2C17.2133 2.77333 18.6 2.46667 19.96 2.28C21.32 2.09333 22.5333 2 23.6 2C24.2133 2 24.92 2.04 25.72 2.12C26.52 2.17333 27.2933 2.30667 28.04 2.52C28.8133 2.73333 29.44 3.06667 29.92 3.52C30.4267 3.94667 30.68 4.52 30.68 5.24C30.68 5.82667 30.5333 6.25333 30.24 6.52C29.9467 6.78667 29.56 7.09333 29.08 7.44C29.0267 7.46667 28.96 7.50667 28.88 7.56C28.8267 7.58667 28.7467 7.6 28.64 7.6C28.48 7.6 28.32 7.54667 28.16 7.44C28.0267 7.30667 27.96 7.16 27.96 7C27.96 6.76 28.08 6.58667 28.32 6.48C28.56 6.37333 28.7867 6.24 29 6.08C29.24 5.92 29.36 5.64 29.36 5.24C29.36 4.76 29.1333 4.38667 28.68 4.12C28.2533 3.82667 27.7067 3.61333 27.04 3.48C26.4 3.34667 25.76 3.26666 25.12 3.24C24.5067 3.18667 24 3.16 23.6 3.16C22.72 3.16 21.7067 3.24 20.56 3.4C19.4133 3.53333 18.2267 3.76 17 4.08C15.8 4.37333 14.6533 4.76 13.56 5.24C12.4933 5.72 11.5867 6.30667 10.84 7C10.12 7.66667 9.65333 8.45333 9.44 9.36C9.41333 9.46667 9.38667 9.57333 9.36 9.68C9.36 9.76 9.36 9.85333 9.36 9.96C9.36 10.6 9.61333 11.0667 10.12 11.36C10.6267 11.6267 11.2267 11.7867 11.92 11.84C12.6133 11.8933 13.2267 11.92 13.76 11.92C15.1733 11.92 16.5733 11.8667 17.96 11.76C19.3467 11.6533 20.7333 11.6 22.12 11.6C22.9467 11.6 23.7867 11.6533 24.64 11.76C25.52 11.84 26.32 12.0267 27.04 12.32C27.7867 12.5867 28.3867 13 28.84 13.56C29.2933 14.0933 29.52 14.8133 29.52 15.72C29.52 16.3067 29.4 16.9067 29.16 17.52C28.68 18.88 27.8533 20.16 26.68 21.36C25.5067 22.5333 24.1067 23.6 22.48 24.56C20.8533 25.52 19.12 26.3467 17.28 27.04C15.4667 27.7333 13.6533 28.2667 11.84 28.64C10.0533 29.0133 8.38667 29.2 6.84 29.2Z" fill="#4B4B4B"/>
<path d="M32.2459 27.92C31.5259 27.92 30.9526 27.7333 30.5259 27.36C30.0993 26.9867 29.7793 26.5333 29.5659 26C29.3793 25.44 29.2859 24.92 29.2859 24.44C29.2859 23.8 29.4059 23.0933 29.6459 22.32C29.8859 21.52 30.0993 20.9733 30.2859 20.68C30.2859 20.6 30.2726 20.52 30.2459 20.44C30.2459 20.3333 30.2459 20.24 30.2459 20.16C30.2459 19.44 30.3526 18.6933 30.5659 17.92C30.8059 17.0133 31.2326 16.1867 31.8459 15.44C32.4593 14.6667 33.2193 14.04 34.1259 13.56C35.0593 13.08 36.0726 12.84 37.1659 12.84C38.4459 12.84 39.4326 13.1867 40.1259 13.88C40.8193 14.5467 41.1659 15.4267 41.1659 16.52C41.1659 18.04 40.8859 19.3467 40.3259 20.44C39.7926 21.5333 39.2193 22.5867 38.6059 23.6C38.4993 23.8133 38.4059 23.9867 38.3259 24.12C38.2459 24.2533 38.3259 24.32 38.5659 24.32C39.3393 24.32 40.0993 24 40.8459 23.36C41.5926 22.72 42.5393 21.5067 43.6859 19.72C43.7659 19.5867 43.8459 19.48 43.9259 19.4C44.0059 19.32 44.1259 19.28 44.2859 19.28H44.3659C44.6593 19.28 44.8326 19.4533 44.8859 19.8C44.8859 19.88 44.8593 19.9733 44.8059 20.08C44.1393 21.2533 43.4593 22.2667 42.7659 23.12C42.0993 23.9733 41.2993 24.6267 40.3659 25.08C39.4326 25.5067 38.2593 25.7333 36.8459 25.76C36.2859 26.2933 35.5926 26.7867 34.7659 27.24C33.9659 27.6933 33.1259 27.92 32.2459 27.92ZM36.0859 24.24H36.4859C37.0459 23.5733 37.5793 22.8133 38.0859 21.96C38.6193 21.1067 39.0459 20.2267 39.3659 19.32C39.6859 18.3867 39.8459 17.5067 39.8459 16.68C39.8459 15.9067 39.6459 15.2533 39.2459 14.72C38.8459 14.16 38.1526 13.88 37.1659 13.88C36.4993 13.88 35.8459 14.0267 35.2059 14.32C34.5926 14.5867 34.0593 14.92 33.6059 15.32L33.7259 15.48C33.7793 15.4533 33.8593 15.44 33.9659 15.44C34.1259 15.44 34.2726 15.5067 34.4059 15.64C34.5393 15.7467 34.6059 15.8667 34.6059 16C34.6059 16.08 34.5926 16.1467 34.5659 16.2C34.5393 16.2533 34.4993 16.3067 34.4459 16.36C33.9926 17.0267 33.5526 17.6533 33.1259 18.24C32.6993 18.8267 32.2993 19.4933 31.9259 20.24C31.8459 20.4267 31.7526 20.6133 31.6459 20.8C31.8593 21.7867 32.3526 22.6133 33.1259 23.28C33.9259 23.92 34.9126 24.24 36.0859 24.24ZM32.4859 26.8C33.0193 26.8 33.5526 26.64 34.0859 26.32C34.6193 25.9733 35.0726 25.6533 35.4459 25.36C33.4193 25.1467 31.9259 24.2533 30.9659 22.68C30.9393 22.8667 30.8859 23.1467 30.8059 23.52C30.7259 23.8933 30.6859 24.2667 30.6859 24.64C30.6859 25.1733 30.8059 25.6667 31.0459 26.12C31.2859 26.5733 31.7659 26.8 32.4859 26.8Z" fill="#4B4B4B"/>
<path d="M50.7978 27.88C50.3445 27.88 49.9311 27.7467 49.5578 27.48C49.1845 27.2133 48.9978 26.7467 48.9978 26.08C48.9978 25.2267 49.2111 24.32 49.6378 23.36C50.0911 22.4 50.6511 21.3467 51.3178 20.2C50.4645 21.1867 49.5045 22.2533 48.4378 23.4C47.3978 24.5467 46.3578 25.4667 45.3178 26.16C44.4111 26.7467 43.6645 27.04 43.0778 27.04C42.5978 27.04 42.2378 26.88 41.9978 26.56C41.7311 26.24 41.5978 25.8267 41.5978 25.32C41.5978 24.7333 41.7311 24.16 41.9978 23.6C42.5845 22.2133 43.2511 20.7067 43.9978 19.08C44.7445 17.4267 45.5311 15.9733 46.3578 14.72C46.4378 14.6133 46.5178 14.5333 46.5978 14.48C46.7045 14.4 46.8245 14.36 46.9578 14.36C47.1445 14.36 47.3045 14.4133 47.4378 14.52C47.5978 14.6267 47.6778 14.76 47.6778 14.92C47.6778 14.9733 47.6511 15.0533 47.5978 15.16C47.4378 15.5333 47.1445 16.1333 46.7178 16.96C46.3178 17.76 45.8511 18.68 45.3178 19.72C44.7845 20.76 44.2378 21.8267 43.6778 22.92C43.2511 23.7467 43.0378 24.4667 43.0378 25.08C43.0378 25.56 43.2111 25.8 43.5578 25.8C43.7178 25.8 43.8911 25.7467 44.0778 25.64C44.8778 25.1867 45.5845 24.6533 46.1978 24.04C46.8111 23.4267 47.4111 22.8 47.9978 22.16C48.3711 21.76 48.7311 21.36 49.0778 20.96C49.4511 20.56 49.8111 20.1467 50.1578 19.72C50.2911 19.5867 50.5445 19.2667 50.9178 18.76C51.3178 18.2533 51.7578 17.6933 52.2378 17.08C52.7178 16.44 53.1445 15.88 53.5178 15.4C53.9178 14.8933 54.1578 14.5867 54.2378 14.48C54.4511 14.2667 54.7711 14.16 55.1978 14.16C55.4111 14.16 55.5978 14.2133 55.7578 14.32C55.9445 14.4 56.0378 14.5467 56.0378 14.76C56.0378 14.9467 55.9045 15.2667 55.6378 15.72C55.3978 16.1467 55.1045 16.6267 54.7578 17.16C54.4111 17.6667 54.0778 18.1333 53.7578 18.56C53.4378 18.9867 53.2111 19.3067 53.0778 19.52C52.9711 19.7067 52.7711 20.0667 52.4778 20.6C52.1845 21.1067 51.8645 21.7067 51.5178 22.4C51.1978 23.0667 50.9178 23.72 50.6778 24.36C50.4378 25 50.3178 25.5333 50.3178 25.96C50.3178 26.44 50.5178 26.68 50.9178 26.68C51.3445 26.68 51.8378 26.4133 52.3978 25.88C52.9578 25.3467 53.5445 24.6933 54.1578 23.92C54.7711 23.12 55.3445 22.3333 55.8778 21.56C56.4111 20.76 56.8645 20.0933 57.2378 19.56C57.3445 19.4267 57.4511 19.3467 57.5578 19.32C57.6645 19.2933 57.7445 19.28 57.7978 19.28C58.0645 19.28 58.2245 19.44 58.2778 19.76C58.2778 19.84 58.1845 20.0667 57.9978 20.44C57.8111 20.8133 57.6245 21.12 57.4378 21.36C57.1978 21.7067 56.8245 22.24 56.3178 22.96C55.8378 23.6533 55.2778 24.4 54.6378 25.2C54.0245 25.9733 53.3445 26.6667 52.5978 27.28C52.1178 27.68 51.5178 27.88 50.7978 27.88Z" fill="#4B4B4B"/>
<path d="M61.7144 27.56C61.2077 27.56 60.7677 27.4 60.3944 27.08C60.0477 26.76 59.8744 26.2533 59.8744 25.56C59.8744 25 59.981 24.4267 60.1944 23.84C60.4077 23.2267 60.6077 22.7467 60.7944 22.4C61.221 21.5467 61.6744 20.76 62.1544 20.04C62.6344 19.2933 62.9944 18.76 63.2344 18.44C62.7544 18.4667 62.181 18.3467 61.5144 18.08C60.8744 17.8133 60.421 17.4667 60.1544 17.04C59.8077 17.5467 59.3144 18.3733 58.6744 19.52C58.0344 20.64 57.221 21.8267 56.2344 23.08C56.0744 23.2933 55.8877 23.4 55.6744 23.4C55.2744 23.4 55.0744 23.2267 55.0744 22.88C55.0744 22.7467 55.1144 22.6267 55.1944 22.52C55.5944 21.96 56.0877 21.24 56.6744 20.36C57.2877 19.4533 57.8744 18.52 58.4344 17.56C59.021 16.5733 59.4877 15.6933 59.8344 14.92C59.941 14.68 60.0477 14.4267 60.1544 14.16C60.2877 13.8933 60.4077 13.64 60.5144 13.4C60.621 13.2133 60.7677 13.0533 60.9544 12.92C61.141 12.76 61.3544 12.68 61.5944 12.68C61.8077 12.68 62.021 12.7733 62.2344 12.96C62.4477 13.12 62.5544 13.3067 62.5544 13.52C62.5544 13.76 62.461 14.0667 62.2744 14.44C62.1144 14.7867 61.941 15.1467 61.7544 15.52C61.5677 15.8933 61.4744 16.2267 61.4744 16.52C61.4744 16.76 61.6744 16.92 62.0744 17C62.4744 17.08 62.7677 17.12 62.9544 17.12C63.6744 17.12 64.2744 16.9733 64.7544 16.68C65.2344 16.3867 65.5677 16.24 65.7544 16.24C65.9144 16.24 66.0477 16.3067 66.1544 16.44C66.2877 16.5467 66.3544 16.6667 66.3544 16.8C66.3544 16.9867 66.2744 17.1467 66.1144 17.28C65.741 17.6267 65.301 18.12 64.7944 18.76C64.2877 19.4 63.781 20.0933 63.2744 20.84C62.7677 21.5867 62.3277 22.32 61.9544 23.04C61.8477 23.3067 61.6877 23.68 61.4744 24.16C61.2877 24.64 61.1944 25.0933 61.1944 25.52C61.1944 26.24 61.4477 26.6 61.9544 26.6C62.1677 26.6 62.4077 26.52 62.6744 26.36C62.9677 26.2 63.2477 26.0133 63.5144 25.8C64.1544 25.2133 64.7144 24.64 65.1944 24.08C65.701 23.4933 66.2077 22.84 66.7144 22.12C67.221 21.4 67.8077 20.5333 68.4744 19.52C68.581 19.3333 68.7677 19.24 69.0344 19.24C69.381 19.24 69.5544 19.4 69.5544 19.72C69.5544 19.88 69.4744 20.1067 69.3144 20.4C68.941 21.0667 68.4477 21.8 67.8344 22.6C67.2477 23.4 66.6344 24.16 65.9944 24.88C65.381 25.5733 64.8344 26.1067 64.3544 26.48C63.501 27.2 62.621 27.56 61.7144 27.56Z" fill="#4B4B4B"/>
<path d="M74.6044 10.68C74.471 10.68 74.3244 10.6533 74.1644 10.6C74.0044 10.5467 73.9244 10.4267 73.9244 10.24C73.9244 10.1067 73.9644 9.98667 74.0444 9.88C74.2577 9.48 74.6444 9.13333 75.2044 8.84C75.791 8.54667 76.231 8.4 76.5244 8.4C76.6577 8.4 76.8044 8.44 76.9644 8.52C77.1244 8.57333 77.2044 8.69333 77.2044 8.88C77.2044 9.33333 76.9244 9.74667 76.3644 10.12C75.831 10.4933 75.2444 10.68 74.6044 10.68ZM70.1244 27.04C69.2177 27.04 68.4977 26.7867 67.9644 26.28C67.431 25.7733 67.1644 25.0667 67.1644 24.16C67.1644 23.6267 67.2177 23.1067 67.3244 22.6C67.431 22.0667 67.5777 21.5467 67.7644 21.04C67.871 20.7467 68.0844 20.2667 68.4044 19.6C68.751 18.9067 69.151 18.1867 69.6044 17.44C70.0577 16.6667 70.4977 16.0133 70.9244 15.48C71.351 14.9467 71.7244 14.68 72.0444 14.68C72.1777 14.68 72.351 14.7333 72.5644 14.84C72.8044 14.92 72.9244 15.0533 72.9244 15.24C72.9244 15.3467 72.871 15.48 72.7644 15.64C72.151 16.3333 71.511 17.16 70.8444 18.12C70.1777 19.08 69.6177 20.08 69.1644 21.12C68.711 22.16 68.4844 23.16 68.4844 24.12C68.4844 25.3467 69.071 25.96 70.2444 25.96C71.0444 25.96 71.8444 25.5733 72.6444 24.8C73.471 24.0267 74.3777 22.9867 75.3644 21.68C75.6577 21.3067 75.911 20.9467 76.1244 20.6C76.3644 20.2267 76.5777 19.9067 76.7644 19.64C76.951 19.4533 77.151 19.36 77.3644 19.36C77.6844 19.36 77.8444 19.48 77.8444 19.72C77.8444 20.0133 77.631 20.48 77.2044 21.12C76.7777 21.76 76.2977 22.4267 75.7644 23.12C74.7244 24.4 73.8177 25.3733 73.0444 26.04C72.271 26.7067 71.2977 27.04 70.1244 27.04Z" fill="#4B4B4B"/>
<path d="M81.2847 27.56C80.778 27.56 80.338 27.4 79.9647 27.08C79.618 26.76 79.4447 26.2533 79.4447 25.56C79.4447 25 79.5514 24.4267 79.7647 23.84C79.978 23.2267 80.178 22.7467 80.3647 22.4C80.7914 21.5467 81.2447 20.76 81.7247 20.04C82.2047 19.2933 82.5647 18.76 82.8047 18.44C82.3247 18.4667 81.7514 18.3467 81.0847 18.08C80.4447 17.8133 79.9914 17.4667 79.7247 17.04C79.378 17.5467 78.8847 18.3733 78.2447 19.52C77.6047 20.64 76.7914 21.8267 75.8047 23.08C75.6447 23.2933 75.458 23.4 75.2447 23.4C74.8447 23.4 74.6447 23.2267 74.6447 22.88C74.6447 22.7467 74.6847 22.6267 74.7647 22.52C75.1647 21.96 75.658 21.24 76.2447 20.36C76.858 19.4533 77.4447 18.52 78.0047 17.56C78.5914 16.5733 79.058 15.6933 79.4047 14.92C79.5114 14.68 79.618 14.4267 79.7247 14.16C79.858 13.8933 79.978 13.64 80.0847 13.4C80.1914 13.2133 80.338 13.0533 80.5247 12.92C80.7114 12.76 80.9247 12.68 81.1647 12.68C81.378 12.68 81.5914 12.7733 81.8047 12.96C82.018 13.12 82.1247 13.3067 82.1247 13.52C82.1247 13.76 82.0314 14.0667 81.8447 14.44C81.6847 14.7867 81.5114 15.1467 81.3247 15.52C81.138 15.8933 81.0447 16.2267 81.0447 16.52C81.0447 16.76 81.2447 16.92 81.6447 17C82.0447 17.08 82.338 17.12 82.5247 17.12C83.2447 17.12 83.8447 16.9733 84.3247 16.68C84.8047 16.3867 85.138 16.24 85.3247 16.24C85.4847 16.24 85.618 16.3067 85.7247 16.44C85.858 16.5467 85.9247 16.6667 85.9247 16.8C85.9247 16.9867 85.8447 17.1467 85.6847 17.28C85.3113 17.6267 84.8714 18.12 84.3647 18.76C83.858 19.4 83.3514 20.0933 82.8447 20.84C82.338 21.5867 81.898 22.32 81.5247 23.04C81.418 23.3067 81.258 23.68 81.0447 24.16C80.858 24.64 80.7647 25.0933 80.7647 25.52C80.7647 26.24 81.018 26.6 81.5247 26.6C81.738 26.6 81.978 26.52 82.2447 26.36C82.538 26.2 82.818 26.0133 83.0847 25.8C83.7247 25.2133 84.2847 24.64 84.7647 24.08C85.2714 23.4933 85.778 22.84 86.2847 22.12C86.7914 21.4 87.378 20.5333 88.0447 19.52C88.1514 19.3333 88.338 19.24 88.6047 19.24C88.9514 19.24 89.1247 19.4 89.1247 19.72C89.1247 19.88 89.0447 20.1067 88.8847 20.4C88.5114 21.0667 88.018 21.8 87.4047 22.6C86.818 23.4 86.2047 24.16 85.5647 24.88C84.9514 25.5733 84.4047 26.1067 83.9247 26.48C83.0714 27.2 82.1914 27.56 81.2847 27.56Z" fill="#4B4B4B"/>
<path d="M90.8147 27.4C89.428 27.4 88.4547 27 87.8947 26.2C87.3614 25.3733 87.0947 24.4133 87.0947 23.32C87.0947 22.52 87.2947 21.5733 87.6947 20.48C88.0947 19.36 88.6413 18.2667 89.3347 17.2C90.0547 16.1333 90.8814 15.2533 91.8147 14.56C92.748 13.84 93.748 13.48 94.8147 13.48C95.508 13.48 96.0547 13.68 96.4547 14.08C96.8814 14.4533 97.0947 14.9333 97.0947 15.52C97.0947 16.64 96.7347 17.72 96.0147 18.76C95.2947 19.8 94.3614 20.6533 93.2147 21.32C92.068 21.9867 90.8414 22.32 89.5347 22.32C89.3747 22.32 89.2147 22.32 89.0547 22.32C88.8947 22.2933 88.7347 22.2667 88.5747 22.24C88.4947 22.5867 88.4547 22.9867 88.4547 23.44C88.4547 24.1333 88.6147 24.7733 88.9347 25.36C89.2813 25.9467 89.9347 26.24 90.8947 26.24C91.6947 26.24 92.468 26.04 93.2147 25.64C93.9614 25.24 94.588 24.7867 95.0947 24.28C95.6014 23.7733 96.028 23.32 96.3747 22.92C96.7214 22.52 97.0814 22.0667 97.4547 21.56C97.828 21.0267 98.2947 20.3333 98.8547 19.48C98.9614 19.2933 99.1214 19.2 99.3347 19.2C99.708 19.2 99.8947 19.4 99.8947 19.8C99.8947 19.9333 99.868 20.04 99.8147 20.12C99.0947 21.3467 98.2947 22.52 97.4147 23.64C96.5347 24.7333 95.548 25.64 94.4547 26.36C93.388 27.0533 92.1747 27.4 90.8147 27.4ZM89.8147 21.08C90.828 21.08 91.7747 20.8133 92.6547 20.28C93.5614 19.72 94.2947 19.0267 94.8547 18.2C95.4414 17.3733 95.7347 16.5333 95.7347 15.68C95.7347 15.3867 95.6547 15.1467 95.4947 14.96C95.3614 14.7733 95.1214 14.68 94.7747 14.68C94.0814 14.68 93.4147 14.92 92.7747 15.4C92.1347 15.8533 91.548 16.44 91.0147 17.16C90.508 17.8533 90.068 18.5467 89.6947 19.24C89.348 19.9333 89.0947 20.52 88.9347 21C89.068 21.0267 89.2014 21.0533 89.3347 21.08C89.4947 21.08 89.6547 21.08 89.8147 21.08Z" fill="#4B4B4B"/>
<path d="M122.224 15.48C122.672 15.48 122.896 15.112 122.896 14.744C122.896 14.376 122.672 14.024 122.24 14.024H122.224L118.128 14.056C118.496 13.208 118.688 12.728 118.688 12.52C118.688 12.104 118.288 11.832 117.92 11.832C117.648 11.832 117.376 11.976 117.264 12.296C116.816 13.624 116.224 14.952 115.312 16.136C115.184 16.296 115.136 16.472 115.136 16.616C115.136 17 115.472 17.272 115.856 17.272C116.24 17.272 116.448 17.192 117.424 15.48H122.224ZM123.072 22.776C123.072 22.168 122.624 21.928 122.272 21.928C121.904 21.928 121.568 22.152 121.568 22.664C121.568 24.12 120.768 24.296 119.344 24.296C117.728 24.296 117.44 24.072 117.44 23.736C117.44 23.608 117.504 23.448 117.6 23.256C118.272 21.992 120.256 20.024 121.136 19.08C121.328 18.872 121.424 18.6 121.424 18.328C121.424 17.736 120.96 17.112 119.984 17.08C119.424 17.064 118.784 17.048 118.16 17.048C117.728 17.048 117.296 17.064 116.928 17.064C116.48 17.08 116.24 17.416 116.24 17.752C116.24 18.088 116.464 18.424 116.912 18.424C117.584 18.424 118.512 18.376 119.12 18.376C119.2 18.376 119.264 18.376 119.328 18.376C119.472 18.376 119.552 18.456 119.552 18.552C119.552 18.6 119.536 18.648 119.488 18.696C118.336 20.024 116.672 21.704 115.888 23.288C115.776 23.496 115.712 23.752 115.712 23.992C115.712 25.704 117.984 25.704 119.264 25.704C120.848 25.704 123.072 25.64 123.072 22.776ZM115.088 23.096C115.52 23.096 115.744 22.776 115.744 22.456C115.744 22.136 115.52 21.816 115.088 21.816H112.992V20.856C114.624 20.856 115.008 20.152 115.04 19.512C115.056 19.176 115.072 18.76 115.072 18.36C115.072 17.784 115.056 17.192 115.024 16.728C114.976 16.024 114.416 15.592 113.632 15.56C113.488 15.56 113.248 15.544 112.992 15.544V14.648H115.008C115.44 14.648 115.664 14.328 115.664 14.008C115.664 13.704 115.44 13.384 115.008 13.384H113.008V12.36C113.008 11.896 112.64 11.672 112.272 11.672C111.904 11.672 111.536 11.896 111.536 12.36V13.384H109.632C109.216 13.384 108.992 13.704 108.992 14.008C108.992 14.328 109.216 14.648 109.632 14.648H111.552V15.544C111.36 15.544 111.168 15.56 111.04 15.56C109.488 15.64 109.456 16.536 109.456 18.264C109.456 18.712 109.472 19.144 109.488 19.512C109.536 20.424 110.128 20.856 111.552 20.856V21.816H109.36C108.96 21.816 108.752 22.136 108.752 22.456C108.752 22.776 108.96 23.096 109.36 23.096H111.552L111.536 25.496C111.536 25.96 111.904 26.184 112.272 26.184C112.64 26.184 113.008 25.96 113.008 25.496L112.992 23.096H115.088ZM110.784 17.64C110.784 17.496 110.8 17.368 110.8 17.24C110.832 16.664 111.072 16.632 112.272 16.632C113.44 16.632 113.664 16.664 113.696 17.112C113.696 17.272 113.712 17.448 113.712 17.64H110.784ZM113.712 18.728C113.712 18.92 113.696 19.096 113.696 19.24C113.68 19.736 113.296 19.768 111.872 19.768C110.784 19.768 110.784 19.528 110.784 18.728H113.712ZM143.424 14.072C143.424 12.424 143.12 12.376 140.528 12.376C139.984 12.376 139.424 12.376 138.944 12.408C137.76 12.472 137.696 13.256 137.696 14.024C137.696 15.672 138.064 15.816 140.448 15.816C142.848 15.816 143.424 15.752 143.424 14.072ZM145.104 17.752C145.104 16.168 144.608 16.152 142.944 16.152C140.944 16.152 140.864 16.456 140.864 17.784C140.864 19.416 141.2 19.496 142.976 19.496C144.8 19.496 145.104 19.304 145.104 17.752ZM140.304 17.752C140.304 16.472 140.24 16.152 138.32 16.152C136.16 16.152 136.16 16.424 136.16 17.88C136.16 19.272 136.4 19.496 138.208 19.496C140.272 19.496 140.304 19.064 140.304 17.752ZM141.28 25.512L141.216 22.728C142.48 24.056 144.48 25.496 145.04 25.496C145.472 25.496 145.776 25.08 145.776 24.68C145.776 24.408 145.632 24.136 145.312 23.992C144.048 23.464 142.784 22.712 141.664 21.688L144.912 21.752H144.928C145.344 21.752 145.568 21.448 145.568 21.128C145.568 20.808 145.344 20.488 144.912 20.488L141.264 20.52L141.28 20.008C141.28 19.992 141.28 19.992 141.28 19.976C141.28 19.544 140.896 19.32 140.528 19.32C140.464 19.32 139.776 19.32 139.792 20.008L139.808 20.52L136.608 20.488C136.176 20.488 135.952 20.808 135.952 21.128C135.952 21.448 136.16 21.752 136.592 21.752H136.608L139.408 21.688C138.48 22.776 137.376 23.608 135.872 24.296C135.552 24.44 135.408 24.712 135.408 24.968C135.408 25.32 135.664 25.64 136.064 25.64C136.496 25.64 138.288 24.728 139.856 22.888L139.792 25.496V25.512C139.792 25.944 140.16 26.152 140.544 26.152C140.912 26.152 141.28 25.944 141.28 25.528V25.512ZM134.368 21.976C134.656 22.312 135.008 22.808 135.248 23.208C135.392 23.448 135.584 23.544 135.792 23.544C136.16 23.544 136.544 23.176 136.544 22.744C136.544 22.056 135.04 20.936 134.928 20.856C134.832 20.792 134.736 20.776 134.64 20.776C134.864 19.544 134.944 18.216 134.976 16.936C135.28 16.888 136.832 15.72 136.832 15.16C136.832 14.776 136.432 14.424 136.064 14.424C135.888 14.424 135.712 14.52 135.584 14.712C135.44 14.968 135.216 15.24 134.992 15.512C134.992 14.584 134.976 13.688 134.96 12.872C134.96 12.36 134.56 12.12 134.176 12.12C133.808 12.12 133.456 12.344 133.456 12.808C133.456 12.824 133.456 12.856 133.456 12.872C133.536 14.136 133.648 15.528 133.648 16.92C133.648 19.64 133.248 22.392 131.552 24.424C131.376 24.632 131.296 24.84 131.296 25.032C131.296 25.4 131.6 25.672 131.984 25.672C132.896 25.672 133.888 23.8 134.368 21.976ZM132.16 19.32C132.944 19.32 133.12 18.264 133.12 16.984C133.12 15.864 133.12 15.16 132.352 15.16C132.032 15.16 131.744 15.368 131.744 15.784C131.744 15.8 131.744 15.832 131.744 15.848C131.76 16.136 131.776 16.424 131.776 16.728C131.776 17.288 131.728 17.864 131.584 18.36C131.552 18.472 131.536 18.584 131.536 18.68C131.536 19.096 131.84 19.32 132.16 19.32ZM142.032 14.152C142.032 14.808 142.032 14.808 140.608 14.808C139.232 14.808 139.088 14.808 139.056 14.488C139.04 14.376 139.04 14.248 139.04 14.104C139.04 13.4 139.04 13.384 140.416 13.384C140.864 13.384 141.328 13.4 141.712 13.416C142.016 13.416 142.032 13.608 142.032 14.152ZM143.808 17.832C143.808 18.44 143.792 18.52 142.96 18.52C142.288 18.52 142.112 18.504 142.112 18.216C142.112 18.104 142.096 17.976 142.096 17.848C142.096 17.72 142.112 17.576 142.112 17.464C142.112 17.192 142.16 17.144 142.96 17.144C143.792 17.144 143.808 17.16 143.808 17.832ZM139.04 18.2C139.04 18.488 138.832 18.52 138.208 18.52C137.408 18.52 137.392 18.488 137.392 17.848C137.392 17.16 137.392 17.144 138.24 17.144C138.8 17.144 139.04 17.16 139.04 17.464C139.056 17.576 139.056 17.704 139.056 17.832C139.056 17.96 139.056 18.088 139.04 18.2ZM166.848 14.6C167.328 14.6 167.568 14.248 167.568 13.896C167.568 13.544 167.328 13.192 166.848 13.192L163.408 13.208V12.472C163.408 12.04 163.024 11.816 162.64 11.816C162.24 11.816 161.856 12.04 161.856 12.472V13.208H159.472V12.472C159.472 12.04 159.088 11.816 158.704 11.816C158.304 11.816 157.92 12.04 157.92 12.472V13.208L154.768 13.192C154.288 13.192 154.016 13.56 154.016 13.928C154.016 14.264 154.256 14.6 154.768 14.6L157.92 14.584V15.256C157.92 15.688 158.288 15.896 158.656 15.896C159.056 15.896 159.472 15.656 159.472 15.192V14.584H161.856V15.256C161.856 15.688 162.224 15.896 162.592 15.896C162.992 15.896 163.408 15.656 163.408 15.192V14.584L166.848 14.6ZM162.576 16.776C162.576 16.328 162.192 16.104 161.792 16.104C161.408 16.104 161.024 16.312 161.024 16.76C160.992 18.088 160.976 19.768 160.976 21.368C160.976 22.28 160.992 23.176 160.992 23.96C161.024 25.832 162.352 25.912 163.952 25.912C165.584 25.912 167.648 25.768 167.648 22.936C167.648 22.184 167.088 22.056 166.768 22.056C166.384 22.056 166.016 22.296 166.016 22.824C166.016 24.392 165.04 24.44 164.032 24.44C163.072 24.44 162.576 24.36 162.544 23.672C162.528 22.936 162.528 22.12 162.528 21.272C163.648 20.792 165.44 19.864 166.464 19.16C166.752 18.952 166.88 18.696 166.88 18.456C166.88 17.992 166.464 17.576 166 17.576C165.856 17.576 165.696 17.624 165.552 17.736C164.752 18.36 163.552 19.112 162.528 19.688C162.544 18.664 162.56 17.672 162.576 16.792V16.776ZM156.72 25.368C156.72 25.384 156.72 25.384 156.72 25.4C156.72 25.928 157.12 26.184 157.52 26.184C157.936 26.184 158.352 25.912 158.368 25.368L158.464 18.872C159.904 17.384 160.048 17.128 160.048 16.824C160.048 16.376 159.632 15.976 159.216 15.976C159.008 15.976 158.8 16.072 158.64 16.296C157.328 18.104 155.856 19.448 154.16 20.248C153.84 20.408 153.696 20.664 153.696 20.936C153.696 21.352 154.016 21.768 154.48 21.768C154.768 21.768 155.376 21.464 156.864 20.312L156.72 25.368ZM189.792 15.832C190.256 15.832 190.48 15.48 190.48 15.112C190.48 14.744 190.24 14.36 189.776 14.36H186.144L186.16 12.696V12.68C186.16 12.232 185.744 11.992 185.328 11.992C184.928 11.992 184.512 12.216 184.512 12.68V12.696L184.528 14.36H181.712C181.248 14.36 180.992 14.76 180.992 15.128C180.992 15.496 181.216 15.832 181.696 15.832H181.712L184.32 15.784C184.256 19.224 183.12 22.824 179.6 24.488C179.248 24.648 179.104 24.92 179.104 25.176C179.104 25.608 179.472 26.008 180 26.008C180.176 26.008 180.368 25.976 180.576 25.864C183.424 24.392 184.912 21.8 185.536 18.776C186.144 18.76 186.8 18.76 187.328 18.76C187.664 18.76 187.92 18.936 187.92 19.368C187.888 21.208 187.744 24.264 185.808 24.264C185.44 24.264 185.008 24.152 184.528 23.944C184.432 23.896 184.336 23.88 184.24 23.88C183.808 23.88 183.488 24.312 183.488 24.744C183.488 25.032 183.632 25.304 184 25.432C184.704 25.688 185.344 25.8 185.888 25.8C189.008 25.8 189.472 22.04 189.472 19.016C189.472 17.96 188.864 17.448 187.824 17.448C187.12 17.448 186.432 17.464 185.76 17.48C185.824 16.92 185.872 16.36 185.904 15.784L189.776 15.832H189.792ZM178.368 21.032C177.808 21.208 177.248 21.368 176.688 21.512C176.32 21.608 176.144 21.912 176.144 22.232C176.144 22.6 176.384 22.968 176.848 22.968C177.536 22.968 180.928 21.544 181.584 21.24C181.936 21.08 182.08 20.824 182.08 20.6C182.08 20.264 181.792 19.96 181.408 19.96C181.28 19.96 181.168 19.976 181.04 20.04C180.656 20.216 180.256 20.392 179.824 20.552L179.84 17.16H181.168C181.584 17.16 181.792 16.808 181.792 16.472C181.792 16.12 181.584 15.784 181.168 15.784H179.84V12.888C179.84 12.424 179.472 12.2 179.088 12.2C178.72 12.2 178.352 12.424 178.352 12.888V15.784H176.976C176.512 15.784 176.288 16.12 176.288 16.472C176.288 16.808 176.512 17.16 176.976 17.16H178.352L178.368 21.032Z" fill="#4B4B4B"/>
</svg>
