<svg width="24" height="24" viewBox="0 0 24 24" fill="none" xmlns="http://www.w3.org/2000/svg">
<path fill-rule="evenodd" clip-rule="evenodd" d="M7.46494 1.06612C8.63794 1.01212 9.01194 1.00012 11.9999 1.00012C14.9879 1.00012 15.3619 1.01312 16.5339 1.06612C17.7059 1.11912 18.5059 1.30612 19.2059 1.57712C19.9389 1.85412 20.6039 2.28712 21.1539 2.84712C21.7139 3.39612 22.1459 4.06012 22.4219 4.79412C22.6939 5.49412 22.8799 6.29412 22.9339 7.46412C22.9879 8.63912 22.9999 9.01312 22.9999 12.0001C22.9999 14.9881 22.9869 15.3621 22.9339 16.5351C22.8809 17.7051 22.6939 18.5051 22.4219 19.2051C22.1459 19.9392 21.7132 20.6043 21.1539 21.1541C20.6039 21.7141 19.9389 22.1461 19.2059 22.4221C18.5059 22.6941 17.7059 22.8801 16.5359 22.9341C15.3619 22.9881 14.9879 23.0001 11.9999 23.0001C9.01194 23.0001 8.63794 22.9871 7.46494 22.9341C6.29494 22.8811 5.49494 22.6941 4.79494 22.4221C4.06086 22.1461 3.39576 21.7134 2.84594 21.1541C2.28632 20.6048 1.85325 19.94 1.57694 19.2061C1.30594 18.5061 1.11994 17.7061 1.06594 16.5361C1.01194 15.3611 0.999939 14.9871 0.999939 12.0001C0.999939 9.01212 1.01294 8.63812 1.06594 7.46612C1.11894 6.29412 1.30594 5.49412 1.57694 4.79412C1.85366 4.0602 2.28706 3.39544 2.84694 2.84612C3.39598 2.28662 4.06041 1.85357 4.79394 1.57712C5.49394 1.30612 6.29394 1.12012 7.46394 1.06612H7.46494ZM16.4449 3.04612C15.2849 2.99312 14.9369 2.98212 11.9999 2.98212C9.06294 2.98212 8.71494 2.99312 7.55494 3.04612C6.48194 3.09512 5.89994 3.27412 5.51194 3.42512C4.99894 3.62512 4.63194 3.86212 4.24694 4.24712C3.88198 4.60217 3.60112 5.0344 3.42494 5.51212C3.27394 5.90012 3.09494 6.48212 3.04594 7.55512C2.99294 8.71512 2.98194 9.06312 2.98194 12.0001C2.98194 14.9371 2.99294 15.2851 3.04594 16.4451C3.09494 17.5181 3.27394 18.1001 3.42494 18.4881C3.60094 18.9651 3.88194 19.3981 4.24694 19.7531C4.60194 20.1181 5.03494 20.3991 5.51194 20.5751C5.89994 20.7261 6.48194 20.9051 7.55494 20.9541C8.71494 21.0071 9.06194 21.0181 11.9999 21.0181C14.9379 21.0181 15.2849 21.0071 16.4449 20.9541C17.5179 20.9051 18.0999 20.7261 18.4879 20.5751C19.0009 20.3751 19.3679 20.1381 19.7529 19.7531C20.1179 19.3981 20.3989 18.9651 20.5749 18.4881C20.7259 18.1001 20.9049 17.5181 20.9539 16.4451C21.0069 15.2851 21.0179 14.9371 21.0179 12.0001C21.0179 9.06312 21.0069 8.71512 20.9539 7.55512C20.9049 6.48212 20.7259 5.90012 20.5749 5.51212C20.3749 4.99912 20.1379 4.63212 19.7529 4.24712C19.3979 3.88219 18.9656 3.60133 18.4879 3.42512C18.0999 3.27412 17.5179 3.09512 16.4449 3.04612ZM10.5949 15.3911C11.3796 15.7178 12.2533 15.7618 13.0669 15.5158C13.8804 15.2698 14.5833 14.749 15.0555 14.0424C15.5278 13.3357 15.74 12.487 15.656 11.6412C15.572 10.7955 15.1969 10.0051 14.5949 9.40512C14.2112 9.0216 13.7472 8.72793 13.2363 8.54527C12.7254 8.3626 12.1804 8.29548 11.6404 8.34874C11.1005 8.40199 10.5791 8.5743 10.1137 8.85325C9.64839 9.13221 9.25068 9.51087 8.94924 9.96197C8.6478 10.4131 8.45013 10.9254 8.37045 11.4621C8.29078 11.9988 8.33109 12.5464 8.48848 13.0656C8.64587 13.5849 8.91642 14.0627 9.28066 14.4648C9.6449 14.867 10.0938 15.1833 10.5949 15.3911ZM8.00194 8.00212C8.52696 7.4771 9.15026 7.06063 9.83624 6.77648C10.5222 6.49234 11.2574 6.3461 11.9999 6.3461C12.7424 6.3461 13.4777 6.49234 14.1636 6.77648C14.8496 7.06062 15.4729 7.4771 15.9979 8.00212C16.523 8.52715 16.9394 9.15044 17.2236 9.83642C17.5077 10.5224 17.654 11.2576 17.654 12.0001C17.654 12.7426 17.5077 13.4778 17.2236 14.1638C16.9394 14.8498 16.523 15.4731 15.9979 15.9981C14.9376 17.0585 13.4995 17.6541 11.9999 17.6541C10.5004 17.6541 9.06227 17.0585 8.00194 15.9981C6.9416 14.9378 6.34591 13.4997 6.34591 12.0001C6.34591 10.5006 6.9416 9.06246 8.00194 8.00212ZM18.9079 7.18812C19.038 7.06539 19.1422 6.9178 19.2142 6.7541C19.2863 6.59039 19.3247 6.41389 19.3274 6.23505C19.33 6.05621 19.2967 5.87867 19.2294 5.71293C19.1622 5.54719 19.0624 5.39663 18.9359 5.27016C18.8094 5.14369 18.6589 5.04388 18.4931 4.97664C18.3274 4.9094 18.1498 4.8761 17.971 4.87871C17.7922 4.88131 17.6157 4.91978 17.452 4.99182C17.2883 5.06386 17.1407 5.16802 17.0179 5.29812C16.7792 5.55115 16.6486 5.88724 16.6536 6.23505C16.6587 6.58286 16.7991 6.915 17.0451 7.16096C17.2911 7.40693 17.6232 7.54735 17.971 7.55242C18.3188 7.55749 18.6549 7.42681 18.9079 7.18812Z" fill="#4B4B4B"/>
</svg>
