<svg width="115" height="19" viewBox="0 0 115 19" fill="none" xmlns="http://www.w3.org/2000/svg">
<path d="M4.104 17.52C3.352 17.52 2.664 17.424 2.04 17.232C1.416 17.056 0.92 16.752 0.552 16.32C0.184 15.904 0 15.328 0 14.592C0 13.968 0.16 13.376 0.48 12.816C0.8 12.256 1.232 11.76 1.776 11.328C2.32 10.896 2.92 10.576 3.576 10.368C3.832 10.288 4.12 10.216 4.44 10.152C4.776 10.072 5.072 10.032 5.328 10.032C5.584 10.032 5.712 10.152 5.712 10.392C5.712 10.568 5.608 10.68 5.4 10.728C5.144 10.792 4.88 10.84 4.608 10.872C4.352 10.888 4.088 10.936 3.816 11.016C3.272 11.192 2.76 11.464 2.28 11.832C1.816 12.184 1.44 12.6 1.152 13.08C0.88 13.544 0.744 14.04 0.744 14.568C0.744 15.16 0.904 15.624 1.224 15.96C1.544 16.296 1.96 16.536 2.472 16.68C2.984 16.824 3.536 16.896 4.128 16.896C4.96 16.896 5.88 16.784 6.888 16.56C7.912 16.352 8.944 16.048 9.984 15.648C11.024 15.248 12.008 14.776 12.936 14.232C13.864 13.688 14.664 13.088 15.336 12.432C16.008 11.776 16.472 11.08 16.728 10.344C16.776 10.216 16.816 10.08 16.848 9.93595C16.88 9.79195 16.896 9.64795 16.896 9.50395C16.896 9.05595 16.776 8.71195 16.536 8.47195C16.312 8.21595 16.008 8.03195 15.624 7.91995C15.256 7.79195 14.856 7.71195 14.424 7.67995C14.008 7.64795 13.608 7.63195 13.224 7.63195C12.392 7.63195 11.552 7.67195 10.704 7.75195C9.872 7.81595 9.032 7.84795 8.184 7.84795C7.704 7.84795 7.2 7.80795 6.672 7.72795C6.144 7.64795 5.696 7.47995 5.328 7.22395C4.976 6.96795 4.8 6.57595 4.8 6.04795C4.8 5.35995 5.016 4.75195 5.448 4.22395C5.88 3.69595 6.448 3.23995 7.152 2.85595C7.872 2.47195 8.648 2.15995 9.48 1.91995C10.328 1.66395 11.16 1.47995 11.976 1.36795C12.792 1.25595 13.52 1.19995 14.16 1.19995C14.528 1.19995 14.952 1.22395 15.432 1.27195C15.912 1.30395 16.376 1.38395 16.824 1.51195C17.288 1.63995 17.664 1.83995 17.952 2.11195C18.256 2.36795 18.408 2.71195 18.408 3.14395C18.408 3.49595 18.32 3.75195 18.144 3.91195C17.968 4.07195 17.736 4.25595 17.448 4.46395C17.416 4.47995 17.376 4.50395 17.328 4.53595C17.296 4.55195 17.248 4.55995 17.184 4.55995C17.088 4.55995 16.992 4.52795 16.896 4.46395C16.816 4.38395 16.776 4.29595 16.776 4.19995C16.776 4.05595 16.848 3.95195 16.992 3.88795C17.136 3.82395 17.272 3.74395 17.4 3.64795C17.544 3.55195 17.616 3.38395 17.616 3.14395C17.616 2.85595 17.48 2.63195 17.208 2.47195C16.952 2.29595 16.624 2.16795 16.224 2.08795C15.84 2.00795 15.456 1.95995 15.072 1.94395C14.704 1.91195 14.4 1.89595 14.16 1.89595C13.632 1.89595 13.024 1.94395 12.336 2.03995C11.648 2.11995 10.936 2.25595 10.2 2.44795C9.48 2.62395 8.792 2.85595 8.136 3.14395C7.496 3.43195 6.952 3.78395 6.504 4.19995C6.072 4.59995 5.792 5.07195 5.664 5.61595C5.648 5.67995 5.632 5.74395 5.616 5.80795C5.616 5.85595 5.616 5.91195 5.616 5.97595C5.616 6.35995 5.768 6.63995 6.072 6.81595C6.376 6.97595 6.736 7.07195 7.152 7.10395C7.568 7.13595 7.936 7.15195 8.256 7.15195C9.104 7.15195 9.944 7.11995 10.776 7.05595C11.608 6.99195 12.44 6.95995 13.272 6.95995C13.768 6.95995 14.272 6.99195 14.784 7.05595C15.312 7.10395 15.792 7.21595 16.224 7.39195C16.672 7.55195 17.032 7.79995 17.304 8.13595C17.576 8.45595 17.712 8.88795 17.712 9.43195C17.712 9.78395 17.64 10.144 17.496 10.512C17.208 11.328 16.712 12.096 16.008 12.816C15.304 13.52 14.464 14.16 13.488 14.736C12.512 15.312 11.472 15.808 10.368 16.224C9.28 16.64 8.192 16.96 7.104 17.184C6.032 17.408 5.032 17.52 4.104 17.52Z" fill="#4B4B4B"/>
<path d="M19.3476 16.752C18.9156 16.752 18.5716 16.64 18.3156 16.416C18.0596 16.192 17.8676 15.92 17.7396 15.6C17.6276 15.264 17.5716 14.952 17.5716 14.664C17.5716 14.28 17.6436 13.856 17.7876 13.392C17.9316 12.912 18.0596 12.584 18.1716 12.408C18.1716 12.36 18.1636 12.312 18.1476 12.264C18.1476 12.2 18.1476 12.144 18.1476 12.096C18.1476 11.664 18.2116 11.216 18.3396 10.752C18.4836 10.208 18.7396 9.71195 19.1076 9.26395C19.4756 8.79995 19.9316 8.42395 20.4756 8.13595C21.0356 7.84795 21.6436 7.70395 22.2996 7.70395C23.0676 7.70395 23.6596 7.91195 24.0756 8.32795C24.4916 8.72795 24.6996 9.25595 24.6996 9.91195C24.6996 10.824 24.5316 11.608 24.1956 12.264C23.8756 12.92 23.5316 13.552 23.1636 14.16C23.0996 14.288 23.0436 14.392 22.9956 14.472C22.9476 14.552 22.9956 14.592 23.1396 14.592C23.6036 14.592 24.0596 14.4 24.5076 14.016C24.9556 13.632 25.5236 12.904 26.2116 11.832C26.2596 11.752 26.3076 11.688 26.3556 11.64C26.4036 11.592 26.4756 11.568 26.5716 11.568H26.6196C26.7956 11.568 26.8996 11.672 26.9316 11.88C26.9316 11.928 26.9156 11.984 26.8836 12.048C26.4836 12.752 26.0756 13.36 25.6596 13.872C25.2596 14.384 24.7796 14.776 24.2196 15.048C23.6596 15.304 22.9556 15.44 22.1076 15.456C21.7716 15.776 21.3556 16.072 20.8596 16.344C20.3796 16.616 19.8756 16.752 19.3476 16.752ZM21.6516 14.544H21.8916C22.2276 14.144 22.5476 13.688 22.8516 13.176C23.1716 12.664 23.4276 12.136 23.6196 11.592C23.8116 11.032 23.9076 10.504 23.9076 10.008C23.9076 9.54395 23.7876 9.15195 23.5476 8.83195C23.3076 8.49595 22.8916 8.32795 22.2996 8.32795C21.8996 8.32795 21.5076 8.41595 21.1236 8.59195C20.7556 8.75195 20.4356 8.95195 20.1636 9.19195L20.2356 9.28795C20.2676 9.27195 20.3156 9.26395 20.3796 9.26395C20.4756 9.26395 20.5636 9.30395 20.6436 9.38395C20.7236 9.44795 20.7636 9.51995 20.7636 9.59995C20.7636 9.64795 20.7556 9.68795 20.7396 9.71995C20.7236 9.75195 20.6996 9.78395 20.6676 9.81595C20.3956 10.216 20.1316 10.592 19.8756 10.944C19.6196 11.296 19.3796 11.696 19.1556 12.144C19.1076 12.256 19.0516 12.368 18.9876 12.48C19.1156 13.072 19.4116 13.568 19.8756 13.968C20.3556 14.352 20.9476 14.544 21.6516 14.544ZM19.4916 16.08C19.8116 16.08 20.1316 15.984 20.4516 15.792C20.7716 15.584 21.0436 15.392 21.2676 15.216C20.0516 15.088 19.1556 14.552 18.5796 13.608C18.5636 13.72 18.5316 13.888 18.4836 14.112C18.4356 14.336 18.4116 14.56 18.4116 14.784C18.4116 15.104 18.4836 15.4 18.6276 15.672C18.7716 15.944 19.0596 16.08 19.4916 16.08Z" fill="#4B4B4B"/>
<path d="M30.4787 16.728C30.2067 16.728 29.9587 16.648 29.7347 16.488C29.5107 16.328 29.3987 16.048 29.3987 15.648C29.3987 15.136 29.5267 14.592 29.7827 14.016C30.0547 13.44 30.3907 12.808 30.7907 12.12C30.2787 12.712 29.7027 13.352 29.0627 14.04C28.4387 14.728 27.8147 15.28 27.1907 15.696C26.6467 16.048 26.1987 16.224 25.8467 16.224C25.5587 16.224 25.3427 16.128 25.1987 15.936C25.0387 15.744 24.9587 15.496 24.9587 15.192C24.9587 14.84 25.0387 14.496 25.1987 14.16C25.5507 13.328 25.9507 12.424 26.3987 11.448C26.8467 10.456 27.3187 9.58395 27.8147 8.83195C27.8627 8.76795 27.9107 8.71995 27.9587 8.68795C28.0227 8.63995 28.0947 8.61595 28.1747 8.61595C28.2867 8.61595 28.3827 8.64795 28.4627 8.71195C28.5587 8.77595 28.6067 8.85595 28.6067 8.95195C28.6067 8.98395 28.5907 9.03195 28.5587 9.09595C28.4627 9.31995 28.2867 9.67995 28.0307 10.176C27.7907 10.656 27.5107 11.208 27.1907 11.832C26.8707 12.456 26.5427 13.096 26.2067 13.752C25.9507 14.248 25.8227 14.68 25.8227 15.048C25.8227 15.336 25.9267 15.48 26.1347 15.48C26.2307 15.48 26.3347 15.448 26.4467 15.384C26.9267 15.112 27.3507 14.792 27.7187 14.424C28.0867 14.056 28.4467 13.68 28.7987 13.296C29.0227 13.056 29.2387 12.816 29.4467 12.576C29.6707 12.336 29.8867 12.088 30.0947 11.832C30.1747 11.752 30.3267 11.56 30.5507 11.256C30.7907 10.952 31.0547 10.616 31.3427 10.248C31.6307 9.86395 31.8867 9.52795 32.1107 9.23995C32.3507 8.93595 32.4947 8.75195 32.5427 8.68795C32.6707 8.55995 32.8627 8.49595 33.1187 8.49595C33.2467 8.49595 33.3587 8.52795 33.4547 8.59195C33.5667 8.63995 33.6227 8.72795 33.6227 8.85595C33.6227 8.96795 33.5427 9.15995 33.3827 9.43195C33.2387 9.68795 33.0627 9.97595 32.8547 10.296C32.6467 10.6 32.4467 10.88 32.2547 11.136C32.0627 11.392 31.9267 11.584 31.8467 11.712C31.7827 11.824 31.6627 12.04 31.4867 12.36C31.3107 12.664 31.1187 13.024 30.9107 13.44C30.7187 13.84 30.5507 14.232 30.4067 14.616C30.2627 15 30.1907 15.32 30.1907 15.576C30.1907 15.864 30.3107 16.008 30.5507 16.008C30.8067 16.008 31.1027 15.848 31.4387 15.528C31.7747 15.208 32.1267 14.816 32.4947 14.352C32.8627 13.872 33.2067 13.4 33.5267 12.936C33.8467 12.456 34.1187 12.056 34.3427 11.736C34.4067 11.656 34.4707 11.608 34.5347 11.592C34.5987 11.576 34.6467 11.568 34.6787 11.568C34.8387 11.568 34.9347 11.664 34.9667 11.856C34.9667 11.904 34.9107 12.04 34.7987 12.264C34.6867 12.488 34.5747 12.672 34.4627 12.816C34.3187 13.024 34.0947 13.344 33.7907 13.776C33.5027 14.192 33.1667 14.64 32.7827 15.12C32.4147 15.584 32.0067 16 31.5587 16.368C31.2707 16.608 30.9107 16.728 30.4787 16.728Z" fill="#4B4B4B"/>
<path d="M37.0286 16.536C36.7246 16.536 36.4606 16.44 36.2366 16.248C36.0286 16.056 35.9246 15.752 35.9246 15.336C35.9246 15 35.9886 14.656 36.1166 14.304C36.2446 13.936 36.3646 13.648 36.4766 13.44C36.7326 12.928 37.0046 12.456 37.2926 12.024C37.5806 11.576 37.7966 11.256 37.9406 11.064C37.6526 11.08 37.3086 11.008 36.9086 10.848C36.5246 10.688 36.2526 10.48 36.0926 10.224C35.8846 10.528 35.5886 11.024 35.2046 11.712C34.8206 12.384 34.3326 13.096 33.7406 13.848C33.6446 13.976 33.5326 14.04 33.4046 14.04C33.1646 14.04 33.0446 13.936 33.0446 13.728C33.0446 13.648 33.0686 13.576 33.1166 13.512C33.3566 13.176 33.6526 12.744 34.0046 12.216C34.3726 11.672 34.7246 11.112 35.0606 10.536C35.4126 9.94395 35.6926 9.41595 35.9006 8.95195C35.9646 8.80795 36.0286 8.65595 36.0926 8.49595C36.1726 8.33595 36.2446 8.18395 36.3086 8.03995C36.3726 7.92795 36.4606 7.83195 36.5726 7.75195C36.6846 7.65595 36.8126 7.60795 36.9566 7.60795C37.0846 7.60795 37.2126 7.66395 37.3406 7.77595C37.4686 7.87195 37.5326 7.98395 37.5326 8.11195C37.5326 8.25595 37.4766 8.43995 37.3646 8.66395C37.2686 8.87195 37.1646 9.08795 37.0526 9.31195C36.9406 9.53595 36.8846 9.73595 36.8846 9.91195C36.8846 10.056 37.0046 10.152 37.2446 10.2C37.4846 10.248 37.6606 10.272 37.7726 10.272C38.2046 10.272 38.5646 10.184 38.8526 10.008C39.1406 9.83195 39.3406 9.74395 39.4526 9.74395C39.5486 9.74395 39.6286 9.78395 39.6926 9.86395C39.7726 9.92795 39.8126 9.99995 39.8126 10.08C39.8126 10.192 39.7646 10.288 39.6686 10.368C39.4446 10.576 39.1806 10.872 38.8766 11.256C38.5726 11.64 38.2686 12.056 37.9646 12.504C37.6606 12.952 37.3966 13.392 37.1726 13.824C37.1086 13.984 37.0126 14.208 36.8846 14.496C36.7726 14.784 36.7166 15.056 36.7166 15.312C36.7166 15.744 36.8686 15.96 37.1726 15.96C37.3006 15.96 37.4446 15.912 37.6046 15.816C37.7806 15.72 37.9486 15.608 38.1086 15.48C38.4926 15.128 38.8286 14.784 39.1166 14.448C39.4206 14.096 39.7246 13.704 40.0286 13.272C40.3326 12.84 40.6846 12.32 41.0846 11.712C41.1486 11.6 41.2606 11.544 41.4206 11.544C41.6286 11.544 41.7326 11.64 41.7326 11.832C41.7326 11.928 41.6846 12.064 41.5886 12.24C41.3646 12.64 41.0686 13.08 40.7006 13.56C40.3486 14.04 39.9806 14.496 39.5966 14.928C39.2286 15.344 38.9006 15.664 38.6126 15.888C38.1006 16.32 37.5726 16.536 37.0286 16.536Z" fill="#4B4B4B"/>
<path d="M44.7626 6.40795C44.6826 6.40795 44.5946 6.39195 44.4986 6.35995C44.4026 6.32795 44.3546 6.25595 44.3546 6.14395C44.3546 6.06395 44.3786 5.99195 44.4266 5.92795C44.5546 5.68795 44.7866 5.47995 45.1226 5.30395C45.4746 5.12795 45.7386 5.03995 45.9146 5.03995C45.9946 5.03995 46.0826 5.06395 46.1786 5.11195C46.2746 5.14395 46.3226 5.21595 46.3226 5.32795C46.3226 5.59995 46.1546 5.84795 45.8186 6.07195C45.4986 6.29595 45.1466 6.40795 44.7626 6.40795ZM42.0746 16.224C41.5306 16.224 41.0986 16.072 40.7786 15.768C40.4586 15.464 40.2986 15.04 40.2986 14.496C40.2986 14.176 40.3306 13.864 40.3946 13.56C40.4586 13.24 40.5466 12.928 40.6586 12.624C40.7226 12.448 40.8506 12.16 41.0426 11.76C41.2506 11.344 41.4906 10.912 41.7626 10.464C42.0346 9.99995 42.2986 9.60795 42.5546 9.28795C42.8106 8.96795 43.0346 8.80795 43.2266 8.80795C43.3066 8.80795 43.4106 8.83995 43.5386 8.90395C43.6826 8.95195 43.7546 9.03195 43.7546 9.14395C43.7546 9.20795 43.7226 9.28795 43.6586 9.38395C43.2906 9.79995 42.9066 10.296 42.5066 10.872C42.1066 11.448 41.7706 12.048 41.4986 12.672C41.2266 13.296 41.0906 13.896 41.0906 14.472C41.0906 15.208 41.4426 15.576 42.1466 15.576C42.6266 15.576 43.1066 15.344 43.5866 14.88C44.0826 14.416 44.6266 13.792 45.2186 13.008C45.3946 12.784 45.5466 12.568 45.6746 12.36C45.8186 12.136 45.9466 11.944 46.0586 11.784C46.1706 11.672 46.2906 11.616 46.4186 11.616C46.6106 11.616 46.7066 11.688 46.7066 11.832C46.7066 12.008 46.5786 12.288 46.3226 12.672C46.0666 13.056 45.7786 13.456 45.4586 13.872C44.8346 14.64 44.2906 15.224 43.8266 15.624C43.3626 16.024 42.7786 16.224 42.0746 16.224Z" fill="#4B4B4B"/>
<path d="M48.7708 16.536C48.4668 16.536 48.2028 16.44 47.9788 16.248C47.7708 16.056 47.6668 15.752 47.6668 15.336C47.6668 15 47.7308 14.656 47.8588 14.304C47.9868 13.936 48.1068 13.648 48.2188 13.44C48.4748 12.928 48.7468 12.456 49.0348 12.024C49.3228 11.576 49.5388 11.256 49.6828 11.064C49.3948 11.08 49.0508 11.008 48.6508 10.848C48.2668 10.688 47.9948 10.48 47.8348 10.224C47.6268 10.528 47.3308 11.024 46.9468 11.712C46.5628 12.384 46.0748 13.096 45.4828 13.848C45.3868 13.976 45.2748 14.04 45.1468 14.04C44.9068 14.04 44.7868 13.936 44.7868 13.728C44.7868 13.648 44.8108 13.576 44.8588 13.512C45.0988 13.176 45.3948 12.744 45.7468 12.216C46.1148 11.672 46.4668 11.112 46.8028 10.536C47.1548 9.94395 47.4348 9.41595 47.6428 8.95195C47.7068 8.80795 47.7708 8.65595 47.8348 8.49595C47.9148 8.33595 47.9868 8.18395 48.0508 8.03995C48.1148 7.92795 48.2028 7.83195 48.3148 7.75195C48.4268 7.65595 48.5548 7.60795 48.6988 7.60795C48.8268 7.60795 48.9548 7.66395 49.0828 7.77595C49.2108 7.87195 49.2748 7.98395 49.2748 8.11195C49.2748 8.25595 49.2188 8.43995 49.1068 8.66395C49.0108 8.87195 48.9068 9.08795 48.7948 9.31195C48.6828 9.53595 48.6268 9.73595 48.6268 9.91195C48.6268 10.056 48.7468 10.152 48.9868 10.2C49.2268 10.248 49.4028 10.272 49.5148 10.272C49.9468 10.272 50.3068 10.184 50.5948 10.008C50.8828 9.83195 51.0828 9.74395 51.1948 9.74395C51.2908 9.74395 51.3708 9.78395 51.4348 9.86395C51.5148 9.92795 51.5548 9.99995 51.5548 10.08C51.5548 10.192 51.5068 10.288 51.4108 10.368C51.1868 10.576 50.9228 10.872 50.6188 11.256C50.3148 11.64 50.0108 12.056 49.7068 12.504C49.4028 12.952 49.1388 13.392 48.9148 13.824C48.8508 13.984 48.7548 14.208 48.6268 14.496C48.5148 14.784 48.4588 15.056 48.4588 15.312C48.4588 15.744 48.6108 15.96 48.9148 15.96C49.0428 15.96 49.1868 15.912 49.3468 15.816C49.5228 15.72 49.6908 15.608 49.8508 15.48C50.2348 15.128 50.5708 14.784 50.8588 14.448C51.1628 14.096 51.4668 13.704 51.7708 13.272C52.0748 12.84 52.4268 12.32 52.8268 11.712C52.8908 11.6 53.0028 11.544 53.1628 11.544C53.3708 11.544 53.4748 11.64 53.4748 11.832C53.4748 11.928 53.4268 12.064 53.3308 12.24C53.1068 12.64 52.8108 13.08 52.4428 13.56C52.0908 14.04 51.7228 14.496 51.3388 14.928C50.9708 15.344 50.6428 15.664 50.3548 15.888C49.8428 16.32 49.3148 16.536 48.7708 16.536Z" fill="#4B4B4B"/>
<path d="M54.4888 16.44C53.6568 16.44 53.0728 16.2 52.7368 15.72C52.4168 15.224 52.2568 14.648 52.2568 13.992C52.2568 13.512 52.3768 12.944 52.6168 12.288C52.8568 11.616 53.1848 10.96 53.6008 10.32C54.0328 9.67995 54.5288 9.15195 55.0888 8.73595C55.6488 8.30395 56.2488 8.08795 56.8888 8.08795C57.3048 8.08795 57.6328 8.20795 57.8728 8.44795C58.1288 8.67195 58.2568 8.95995 58.2568 9.31195C58.2568 9.98395 58.0408 10.632 57.6088 11.256C57.1768 11.88 56.6168 12.392 55.9288 12.792C55.2408 13.192 54.5048 13.392 53.7208 13.392C53.6248 13.392 53.5288 13.392 53.4328 13.392C53.3368 13.376 53.2408 13.36 53.1448 13.344C53.0968 13.552 53.0728 13.792 53.0728 14.064C53.0728 14.48 53.1688 14.864 53.3608 15.216C53.5688 15.568 53.9608 15.744 54.5368 15.744C55.0168 15.744 55.4808 15.624 55.9288 15.384C56.3768 15.144 56.7528 14.872 57.0568 14.568C57.3608 14.264 57.6168 13.992 57.8248 13.752C58.0328 13.512 58.2488 13.24 58.4728 12.936C58.6968 12.616 58.9768 12.2 59.3128 11.688C59.3768 11.576 59.4728 11.52 59.6008 11.52C59.8248 11.52 59.9368 11.64 59.9368 11.88C59.9368 11.96 59.9208 12.024 59.8888 12.072C59.4568 12.808 58.9768 13.512 58.4488 14.184C57.9208 14.84 57.3288 15.384 56.6728 15.816C56.0328 16.232 55.3048 16.44 54.4888 16.44ZM53.8888 12.648C54.4968 12.648 55.0648 12.488 55.5928 12.168C56.1368 11.832 56.5768 11.416 56.9128 10.92C57.2648 10.424 57.4408 9.91995 57.4408 9.40795C57.4408 9.23195 57.3928 9.08795 57.2968 8.97595C57.2168 8.86395 57.0728 8.80795 56.8648 8.80795C56.4488 8.80795 56.0488 8.95195 55.6648 9.23995C55.2808 9.51195 54.9288 9.86395 54.6088 10.296C54.3048 10.712 54.0408 11.128 53.8168 11.544C53.6088 11.96 53.4568 12.312 53.3608 12.6C53.4408 12.616 53.5208 12.632 53.6008 12.648C53.6968 12.648 53.7928 12.648 53.8888 12.648Z" fill="#4B4B4B"/>
<path d="M73.3344 8.68802C73.6032 8.68802 73.7376 8.46722 73.7376 8.24642C73.7376 8.02562 73.6032 7.81442 73.344 7.81442H73.3344L70.8768 7.83362C71.0976 7.32482 71.2128 7.03682 71.2128 6.91202C71.2128 6.66242 70.9728 6.49922 70.752 6.49922C70.5888 6.49922 70.4256 6.58562 70.3584 6.77762C70.0896 7.57442 69.7344 8.37122 69.1872 9.08162C69.1104 9.17762 69.0816 9.28322 69.0816 9.36962C69.0816 9.60002 69.2832 9.76322 69.5136 9.76322C69.744 9.76322 69.8688 9.71522 70.4544 8.68802H73.3344ZM73.8432 13.0656C73.8432 12.7008 73.5744 12.5568 73.3632 12.5568C73.1424 12.5568 72.9408 12.6912 72.9408 12.9984C72.9408 13.872 72.4608 13.9776 71.6064 13.9776C70.6368 13.9776 70.464 13.8432 70.464 13.6416C70.464 13.5648 70.5024 13.4688 70.56 13.3536C70.9632 12.5952 72.1536 11.4144 72.6816 10.848C72.7968 10.7232 72.8544 10.56 72.8544 10.3968C72.8544 10.0416 72.576 9.66722 71.9904 9.64802C71.6544 9.63842 71.2704 9.62882 70.896 9.62882C70.6368 9.62882 70.3776 9.63842 70.1568 9.63842C69.888 9.64802 69.744 9.84962 69.744 10.0512C69.744 10.2528 69.8784 10.4544 70.1472 10.4544C70.5504 10.4544 71.1072 10.4256 71.472 10.4256C71.52 10.4256 71.5584 10.4256 71.5968 10.4256C71.6832 10.4256 71.7312 10.4736 71.7312 10.5312C71.7312 10.56 71.7216 10.5888 71.6928 10.6176C71.0016 11.4144 70.0032 12.4224 69.5328 13.3728C69.4656 13.4976 69.4272 13.6512 69.4272 13.7952C69.4272 14.8224 70.7904 14.8224 71.5584 14.8224C72.5088 14.8224 73.8432 14.784 73.8432 13.0656ZM69.0528 13.2576C69.312 13.2576 69.4464 13.0656 69.4464 12.8736C69.4464 12.6816 69.312 12.4896 69.0528 12.4896H67.7952V11.9136C68.7744 11.9136 69.0048 11.4912 69.024 11.1072C69.0336 10.9056 69.0432 10.656 69.0432 10.416C69.0432 10.0704 69.0336 9.71522 69.0144 9.43682C68.9856 9.01442 68.6496 8.75522 68.1792 8.73602C68.0928 8.73602 67.9488 8.72642 67.7952 8.72642V8.18882H69.0048C69.264 8.18882 69.3984 7.99682 69.3984 7.80482C69.3984 7.62242 69.264 7.43042 69.0048 7.43042H67.8048V6.81602C67.8048 6.53762 67.584 6.40322 67.3632 6.40322C67.1424 6.40322 66.9216 6.53762 66.9216 6.81602V7.43042H65.7792C65.5296 7.43042 65.3952 7.62242 65.3952 7.80482C65.3952 7.99682 65.5296 8.18882 65.7792 8.18882H66.9312V8.72642C66.816 8.72642 66.7008 8.73602 66.624 8.73602C65.6928 8.78402 65.6736 9.32162 65.6736 10.3584C65.6736 10.6272 65.6832 10.8864 65.6928 11.1072C65.7216 11.6544 66.0768 11.9136 66.9312 11.9136V12.4896H65.616C65.376 12.4896 65.2512 12.6816 65.2512 12.8736C65.2512 13.0656 65.376 13.2576 65.616 13.2576H66.9312L66.9216 14.6976C66.9216 14.976 67.1424 15.1104 67.3632 15.1104C67.584 15.1104 67.8048 14.976 67.8048 14.6976L67.7952 13.2576H69.0528ZM66.4704 9.98402C66.4704 9.89762 66.48 9.82082 66.48 9.74402C66.4992 9.39842 66.6432 9.37922 67.3632 9.37922C68.064 9.37922 68.1984 9.39842 68.2176 9.66722C68.2176 9.76322 68.2272 9.86882 68.2272 9.98402H66.4704ZM68.2272 10.6368C68.2272 10.752 68.2176 10.8576 68.2176 10.944C68.208 11.2416 67.9776 11.2608 67.1232 11.2608C66.4704 11.2608 66.4704 11.1168 66.4704 10.6368H68.2272ZM86.0544 7.84322C86.0544 6.85442 85.872 6.82562 84.3168 6.82562C83.9904 6.82562 83.6544 6.82562 83.3664 6.84482C82.656 6.88322 82.6176 7.35362 82.6176 7.81442C82.6176 8.80322 82.8384 8.88962 84.2688 8.88962C85.7089 8.88962 86.0544 8.85122 86.0544 7.84322ZM87.0624 10.0512C87.0624 9.10082 86.7649 9.09122 85.7665 9.09122C84.5664 9.09122 84.5185 9.27362 84.5185 10.0704C84.5185 11.0496 84.72 11.0976 85.7856 11.0976C86.8801 11.0976 87.0624 10.9824 87.0624 10.0512ZM84.1824 10.0512C84.1824 9.28322 84.144 9.09122 82.992 9.09122C81.696 9.09122 81.696 9.25442 81.696 10.128C81.696 10.9632 81.84 11.0976 82.9248 11.0976C84.1633 11.0976 84.1824 10.8384 84.1824 10.0512ZM84.768 14.7072L84.7297 13.0368C85.4881 13.8336 86.6881 14.6976 87.024 14.6976C87.2833 14.6976 87.4656 14.448 87.4656 14.208C87.4656 14.0448 87.3792 13.8816 87.1873 13.7952C86.4289 13.4784 85.6705 13.0272 84.9985 12.4128L86.9473 12.4512H86.9569C87.2064 12.4512 87.3409 12.2688 87.3409 12.0768C87.3409 11.8848 87.2064 11.6928 86.9473 11.6928L84.7584 11.712L84.768 11.4048C84.768 11.3952 84.768 11.3952 84.768 11.3856C84.768 11.1264 84.5376 10.992 84.3168 10.992C84.2784 10.992 83.8656 10.992 83.8752 11.4048L83.8848 11.712L81.9648 11.6928C81.7056 11.6928 81.5712 11.8848 81.5712 12.0768C81.5712 12.2688 81.696 12.4512 81.9552 12.4512H81.9648L83.6448 12.4128C83.088 13.0656 82.4256 13.5648 81.5232 13.9776C81.3312 14.064 81.2448 14.2272 81.2448 14.3808C81.2448 14.592 81.3984 14.784 81.6384 14.784C81.8976 14.784 82.9728 14.2368 83.9136 13.1328L83.8752 14.6976V14.7072C83.8752 14.9664 84.096 15.0912 84.3264 15.0912C84.5472 15.0912 84.768 14.9664 84.768 14.7168V14.7072ZM80.6208 12.5856C80.7936 12.7872 81.0048 13.0848 81.1488 13.3248C81.2352 13.4688 81.3504 13.5264 81.4752 13.5264C81.696 13.5264 81.9264 13.3056 81.9264 13.0464C81.9264 12.6336 81.024 11.9616 80.9568 11.9136C80.8992 11.8752 80.8416 11.8656 80.784 11.8656C80.9184 11.1264 80.9664 10.3296 80.9856 9.56162C81.168 9.53282 82.0992 8.83202 82.0992 8.49602C82.0992 8.26562 81.8592 8.05442 81.6384 8.05442C81.5328 8.05442 81.4272 8.11202 81.3504 8.22722C81.264 8.38082 81.1296 8.54402 80.9952 8.70722C80.9952 8.15042 80.9856 7.61282 80.976 7.12322C80.976 6.81602 80.736 6.67202 80.5056 6.67202C80.2848 6.67202 80.0736 6.80642 80.0736 7.08482C80.0736 7.09442 80.0736 7.11362 80.0736 7.12322C80.1216 7.88162 80.1888 8.71682 80.1888 9.55202C80.1888 11.184 79.9488 12.8352 78.9312 14.0544C78.8256 14.1792 78.7776 14.304 78.7776 14.4192C78.7776 14.64 78.96 14.8032 79.1904 14.8032C79.7376 14.8032 80.3328 13.68 80.6208 12.5856ZM79.296 10.992C79.7664 10.992 79.872 10.3584 79.872 9.59042C79.872 8.91842 79.872 8.49602 79.4112 8.49602C79.2192 8.49602 79.0464 8.62082 79.0464 8.87042C79.0464 8.88002 79.0464 8.89922 79.0464 8.90882C79.056 9.08162 79.0656 9.25442 79.0656 9.43682C79.0656 9.77282 79.0368 10.1184 78.9504 10.416C78.9312 10.4832 78.9216 10.5504 78.9216 10.608C78.9216 10.8576 79.104 10.992 79.296 10.992ZM85.2193 7.89122C85.2193 8.28482 85.2193 8.28482 84.3648 8.28482C83.5393 8.28482 83.4528 8.28482 83.4336 8.09282C83.424 8.02562 83.424 7.94882 83.424 7.86242C83.424 7.44002 83.424 7.43042 84.2497 7.43042C84.5185 7.43042 84.7968 7.44002 85.0272 7.44962C85.2096 7.44962 85.2193 7.56482 85.2193 7.89122ZM86.2849 10.0992C86.2849 10.464 86.2752 10.512 85.776 10.512C85.3728 10.512 85.2673 10.5024 85.2673 10.3296C85.2673 10.2624 85.2576 10.1856 85.2576 10.1088C85.2576 10.032 85.2673 9.94562 85.2673 9.87842C85.2673 9.71522 85.296 9.68642 85.776 9.68642C86.2752 9.68642 86.2849 9.69602 86.2849 10.0992ZM83.424 10.32C83.424 10.4928 83.2992 10.512 82.9248 10.512C82.4448 10.512 82.4352 10.4928 82.4352 10.1088C82.4352 9.69602 82.4352 9.68642 82.944 9.68642C83.28 9.68642 83.424 9.69602 83.424 9.87842C83.4336 9.94562 83.4336 10.0224 83.4336 10.0992C83.4336 10.176 83.4336 10.2528 83.424 10.32ZM100.109 8.16002C100.397 8.16002 100.541 7.94882 100.541 7.73762C100.541 7.52642 100.397 7.31522 100.109 7.31522L98.0449 7.32482V6.88322C98.0449 6.62402 97.8145 6.48962 97.5841 6.48962C97.3441 6.48962 97.1137 6.62402 97.1137 6.88322V7.32482H95.6833V6.88322C95.6833 6.62402 95.4529 6.48962 95.2225 6.48962C94.9825 6.48962 94.7521 6.62402 94.7521 6.88322V7.32482L92.8608 7.31522C92.5728 7.31522 92.4096 7.53602 92.4096 7.75682C92.4096 7.95842 92.5536 8.16002 92.8608 8.16002L94.7521 8.15042V8.55362C94.7521 8.81282 94.9729 8.93762 95.1937 8.93762C95.4337 8.93762 95.6833 8.79362 95.6833 8.51522V8.15042H97.1137V8.55362C97.1137 8.81282 97.3345 8.93762 97.5553 8.93762C97.7953 8.93762 98.0449 8.79362 98.0449 8.51522V8.15042L100.109 8.16002ZM97.5457 9.46562C97.5457 9.19682 97.3153 9.06242 97.0753 9.06242C96.8449 9.06242 96.6145 9.18722 96.6145 9.45602C96.5953 10.2528 96.5857 11.2608 96.5857 12.2208C96.5857 12.768 96.5953 13.3056 96.5953 13.776C96.6145 14.8992 97.4113 14.9472 98.3713 14.9472C99.3505 14.9472 100.589 14.8608 100.589 13.1616C100.589 12.7104 100.253 12.6336 100.061 12.6336C99.8305 12.6336 99.6097 12.7776 99.6097 13.0944C99.6097 14.0352 99.0241 14.064 98.4193 14.064C97.8433 14.064 97.5457 14.016 97.5265 13.6032C97.5169 13.1616 97.5169 12.672 97.5169 12.1632C98.1889 11.8752 99.2641 11.3184 99.8785 10.896C100.051 10.7712 100.128 10.6176 100.128 10.4736C100.128 10.1952 99.8785 9.94562 99.6001 9.94562C99.5137 9.94562 99.4177 9.97442 99.3313 10.0416C98.8513 10.416 98.1313 10.8672 97.5169 11.2128C97.5265 10.5984 97.5361 10.0032 97.5457 9.47522V9.46562ZM94.0321 14.6208C94.0321 14.6304 94.0321 14.6304 94.0321 14.64C94.0321 14.9568 94.2721 15.1104 94.5121 15.1104C94.7617 15.1104 95.0113 14.9472 95.0209 14.6208L95.0785 10.7232C95.9425 9.83042 96.0289 9.67682 96.0289 9.49442C96.0289 9.22562 95.7793 8.98562 95.5297 8.98562C95.4049 8.98562 95.2801 9.04322 95.1841 9.17762C94.3969 10.2624 93.5137 11.0688 92.496 11.5488C92.304 11.6448 92.2176 11.7984 92.2176 11.9616C92.2176 12.2112 92.4096 12.4608 92.688 12.4608C92.8608 12.4608 93.2257 12.2784 94.1185 11.5872L94.0321 14.6208ZM113.875 8.89922C114.154 8.89922 114.288 8.68802 114.288 8.46722C114.288 8.24642 114.144 8.01602 113.866 8.01602H111.686L111.696 7.01762V7.00802C111.696 6.73922 111.446 6.59522 111.197 6.59522C110.957 6.59522 110.707 6.72962 110.707 7.00802V7.01762L110.717 8.01602H109.027C108.749 8.01602 108.595 8.25602 108.595 8.47682C108.595 8.69762 108.73 8.89922 109.018 8.89922H109.027L110.592 8.87042C110.554 10.9344 109.872 13.0944 107.76 14.0928C107.549 14.1888 107.462 14.352 107.462 14.5056C107.462 14.7648 107.683 15.0048 108 15.0048C108.106 15.0048 108.221 14.9856 108.346 14.9184C110.054 14.0352 110.947 12.48 111.322 10.6656C111.686 10.656 112.08 10.656 112.397 10.656C112.598 10.656 112.752 10.7616 112.752 11.0208C112.733 12.1248 112.646 13.9584 111.485 13.9584C111.264 13.9584 111.005 13.8912 110.717 13.7664C110.659 13.7376 110.602 13.728 110.544 13.728C110.285 13.728 110.093 13.9872 110.093 14.2464C110.093 14.4192 110.179 14.5824 110.4 14.6592C110.822 14.8128 111.206 14.88 111.533 14.88C113.405 14.88 113.683 12.624 113.683 10.8096C113.683 10.176 113.318 9.86882 112.694 9.86882C112.272 9.86882 111.859 9.87842 111.456 9.88802C111.494 9.55202 111.523 9.21602 111.542 8.87042L113.866 8.89922H113.875ZM107.021 12.0192C106.685 12.1248 106.349 12.2208 106.013 12.3072C105.792 12.3648 105.686 12.5472 105.686 12.7392C105.686 12.96 105.83 13.1808 106.109 13.1808C106.522 13.1808 108.557 12.3264 108.95 12.144C109.162 12.048 109.248 11.8944 109.248 11.76C109.248 11.5584 109.075 11.376 108.845 11.376C108.768 11.376 108.701 11.3856 108.624 11.424C108.394 11.5296 108.154 11.6352 107.894 11.7312L107.904 9.69602H108.701C108.95 9.69602 109.075 9.48482 109.075 9.28322C109.075 9.07202 108.95 8.87042 108.701 8.87042H107.904V7.13282C107.904 6.85442 107.683 6.72002 107.453 6.72002C107.232 6.72002 107.011 6.85442 107.011 7.13282V8.87042H106.186C105.907 8.87042 105.773 9.07202 105.773 9.28322C105.773 9.48482 105.907 9.69602 106.186 9.69602H107.011L107.021 12.0192Z" fill="#4B4B4B"/>
</svg>
