<svg width="60" height="17" viewBox="0 0 60 17" fill="none" xmlns="http://www.w3.org/2000/svg">
<path d="M4.104 16.52C3.352 16.52 2.664 16.424 2.04 16.232C1.416 16.056 0.92 15.752 0.552 15.32C0.184 14.904 0 14.328 0 13.592C0 12.968 0.16 12.376 0.48 11.816C0.8 11.256 1.232 10.76 1.776 10.328C2.32 9.89595 2.92 9.57595 3.576 9.36795C3.832 9.28795 4.12 9.21595 4.44 9.15195C4.776 9.07195 5.072 9.03195 5.328 9.03195C5.584 9.03195 5.712 9.15195 5.712 9.39195C5.712 9.56795 5.608 9.67995 5.4 9.72795C5.144 9.79195 4.88 9.83995 4.608 9.87195C4.352 9.88795 4.088 9.93595 3.816 10.016C3.272 10.192 2.76 10.464 2.28 10.832C1.816 11.184 1.44 11.6 1.152 12.08C0.88 12.544 0.744 13.04 0.744 13.568C0.744 14.16 0.904 14.624 1.224 14.96C1.544 15.296 1.96 15.536 2.472 15.68C2.984 15.824 3.536 15.896 4.128 15.896C4.96 15.896 5.88 15.784 6.888 15.56C7.912 15.352 8.944 15.048 9.984 14.648C11.024 14.248 12.008 13.776 12.936 13.232C13.864 12.688 14.664 12.088 15.336 11.432C16.008 10.776 16.472 10.08 16.728 9.34395C16.776 9.21595 16.816 9.07995 16.848 8.93595C16.88 8.79195 16.896 8.64795 16.896 8.50395C16.896 8.05595 16.776 7.71195 16.536 7.47195C16.312 7.21595 16.008 7.03195 15.624 6.91995C15.256 6.79195 14.856 6.71195 14.424 6.67995C14.008 6.64795 13.608 6.63195 13.224 6.63195C12.392 6.63195 11.552 6.67195 10.704 6.75195C9.872 6.81595 9.032 6.84795 8.184 6.84795C7.704 6.84795 7.2 6.80795 6.672 6.72795C6.144 6.64795 5.696 6.47995 5.328 6.22395C4.976 5.96795 4.8 5.57595 4.8 5.04795C4.8 4.35995 5.016 3.75195 5.448 3.22395C5.88 2.69595 6.448 2.23995 7.152 1.85595C7.872 1.47195 8.648 1.15995 9.48 0.91995C10.328 0.663951 11.16 0.479951 11.976 0.36795C12.792 0.255951 13.52 0.199951 14.16 0.199951C14.528 0.199951 14.952 0.223951 15.432 0.27195C15.912 0.303951 16.376 0.383951 16.824 0.51195C17.288 0.63995 17.664 0.839951 17.952 1.11195C18.256 1.36795 18.408 1.71195 18.408 2.14395C18.408 2.49595 18.32 2.75195 18.144 2.91195C17.968 3.07195 17.736 3.25595 17.448 3.46395C17.416 3.47995 17.376 3.50395 17.328 3.53595C17.296 3.55195 17.248 3.55995 17.184 3.55995C17.088 3.55995 16.992 3.52795 16.896 3.46395C16.816 3.38395 16.776 3.29595 16.776 3.19995C16.776 3.05595 16.848 2.95195 16.992 2.88795C17.136 2.82395 17.272 2.74395 17.4 2.64795C17.544 2.55195 17.616 2.38395 17.616 2.14395C17.616 1.85595 17.48 1.63195 17.208 1.47195C16.952 1.29595 16.624 1.16795 16.224 1.08795C15.84 1.00795 15.456 0.95995 15.072 0.94395C14.704 0.911951 14.4 0.895951 14.16 0.895951C13.632 0.895951 13.024 0.943951 12.336 1.03995C11.648 1.11995 10.936 1.25595 10.2 1.44795C9.48 1.62395 8.792 1.85595 8.136 2.14395C7.496 2.43195 6.952 2.78395 6.504 3.19995C6.072 3.59995 5.792 4.07195 5.664 4.61595C5.648 4.67995 5.632 4.74395 5.616 4.80795C5.616 4.85595 5.616 4.91195 5.616 4.97595C5.616 5.35995 5.768 5.63995 6.072 5.81595C6.376 5.97595 6.736 6.07195 7.152 6.10395C7.568 6.13595 7.936 6.15195 8.256 6.15195C9.104 6.15195 9.944 6.11995 10.776 6.05595C11.608 5.99195 12.44 5.95995 13.272 5.95995C13.768 5.95995 14.272 5.99195 14.784 6.05595C15.312 6.10395 15.792 6.21595 16.224 6.39195C16.672 6.55195 17.032 6.79995 17.304 7.13595C17.576 7.45595 17.712 7.88795 17.712 8.43195C17.712 8.78395 17.64 9.14395 17.496 9.51195C17.208 10.328 16.712 11.096 16.008 11.816C15.304 12.52 14.464 13.16 13.488 13.736C12.512 14.312 11.472 14.808 10.368 15.224C9.28 15.64 8.192 15.96 7.104 16.184C6.032 16.408 5.032 16.52 4.104 16.52Z" fill="#4B4B4B"/>
<path d="M19.3476 15.752C18.9156 15.752 18.5716 15.64 18.3156 15.416C18.0596 15.192 17.8676 14.92 17.7396 14.6C17.6276 14.264 17.5716 13.952 17.5716 13.664C17.5716 13.28 17.6436 12.856 17.7876 12.392C17.9316 11.912 18.0596 11.584 18.1716 11.408C18.1716 11.36 18.1636 11.312 18.1476 11.264C18.1476 11.2 18.1476 11.144 18.1476 11.096C18.1476 10.664 18.2116 10.216 18.3396 9.75195C18.4836 9.20795 18.7396 8.71195 19.1076 8.26395C19.4756 7.79995 19.9316 7.42395 20.4756 7.13595C21.0356 6.84795 21.6436 6.70395 22.2996 6.70395C23.0676 6.70395 23.6596 6.91195 24.0756 7.32795C24.4916 7.72795 24.6996 8.25595 24.6996 8.91195C24.6996 9.82395 24.5316 10.608 24.1956 11.264C23.8756 11.92 23.5316 12.552 23.1636 13.16C23.0996 13.288 23.0436 13.392 22.9956 13.472C22.9476 13.552 22.9956 13.592 23.1396 13.592C23.6036 13.592 24.0596 13.4 24.5076 13.016C24.9556 12.632 25.5236 11.904 26.2116 10.832C26.2596 10.752 26.3076 10.688 26.3556 10.64C26.4036 10.592 26.4756 10.568 26.5716 10.568H26.6196C26.7956 10.568 26.8996 10.672 26.9316 10.88C26.9316 10.928 26.9156 10.984 26.8836 11.048C26.4836 11.752 26.0756 12.36 25.6596 12.872C25.2596 13.384 24.7796 13.776 24.2196 14.048C23.6596 14.304 22.9556 14.44 22.1076 14.456C21.7716 14.776 21.3556 15.072 20.8596 15.344C20.3796 15.616 19.8756 15.752 19.3476 15.752ZM21.6516 13.544H21.8916C22.2276 13.144 22.5476 12.688 22.8516 12.176C23.1716 11.664 23.4276 11.136 23.6196 10.592C23.8116 10.032 23.9076 9.50395 23.9076 9.00795C23.9076 8.54395 23.7876 8.15195 23.5476 7.83195C23.3076 7.49595 22.8916 7.32795 22.2996 7.32795C21.8996 7.32795 21.5076 7.41595 21.1236 7.59195C20.7556 7.75195 20.4356 7.95195 20.1636 8.19195L20.2356 8.28795C20.2676 8.27195 20.3156 8.26395 20.3796 8.26395C20.4756 8.26395 20.5636 8.30395 20.6436 8.38395C20.7236 8.44795 20.7636 8.51995 20.7636 8.59995C20.7636 8.64795 20.7556 8.68795 20.7396 8.71995C20.7236 8.75195 20.6996 8.78395 20.6676 8.81595C20.3956 9.21595 20.1316 9.59195 19.8756 9.94395C19.6196 10.296 19.3796 10.696 19.1556 11.144C19.1076 11.256 19.0516 11.368 18.9876 11.48C19.1156 12.072 19.4116 12.568 19.8756 12.968C20.3556 13.352 20.9476 13.544 21.6516 13.544ZM19.4916 15.08C19.8116 15.08 20.1316 14.984 20.4516 14.792C20.7716 14.584 21.0436 14.392 21.2676 14.216C20.0516 14.088 19.1556 13.552 18.5796 12.608C18.5636 12.72 18.5316 12.888 18.4836 13.112C18.4356 13.336 18.4116 13.56 18.4116 13.784C18.4116 14.104 18.4836 14.4 18.6276 14.672C18.7716 14.944 19.0596 15.08 19.4916 15.08Z" fill="#4B4B4B"/>
<path d="M30.4787 15.728C30.2067 15.728 29.9587 15.648 29.7347 15.488C29.5107 15.328 29.3987 15.048 29.3987 14.648C29.3987 14.136 29.5267 13.592 29.7827 13.016C30.0547 12.44 30.3907 11.808 30.7907 11.12C30.2787 11.712 29.7027 12.352 29.0627 13.04C28.4387 13.728 27.8147 14.28 27.1907 14.696C26.6467 15.048 26.1987 15.224 25.8467 15.224C25.5587 15.224 25.3427 15.128 25.1987 14.936C25.0387 14.744 24.9587 14.496 24.9587 14.192C24.9587 13.84 25.0387 13.496 25.1987 13.16C25.5507 12.328 25.9507 11.424 26.3987 10.448C26.8467 9.45595 27.3187 8.58395 27.8147 7.83195C27.8627 7.76795 27.9107 7.71995 27.9587 7.68795C28.0227 7.63995 28.0947 7.61595 28.1747 7.61595C28.2867 7.61595 28.3827 7.64795 28.4627 7.71195C28.5587 7.77595 28.6067 7.85595 28.6067 7.95195C28.6067 7.98395 28.5907 8.03195 28.5587 8.09595C28.4627 8.31995 28.2867 8.67995 28.0307 9.17595C27.7907 9.65595 27.5107 10.208 27.1907 10.832C26.8707 11.456 26.5427 12.096 26.2067 12.752C25.9507 13.248 25.8227 13.68 25.8227 14.048C25.8227 14.336 25.9267 14.48 26.1347 14.48C26.2307 14.48 26.3347 14.448 26.4467 14.384C26.9267 14.112 27.3507 13.792 27.7187 13.424C28.0867 13.056 28.4467 12.68 28.7987 12.296C29.0227 12.056 29.2387 11.816 29.4467 11.576C29.6707 11.336 29.8867 11.088 30.0947 10.832C30.1747 10.752 30.3267 10.56 30.5507 10.256C30.7907 9.95195 31.0547 9.61595 31.3427 9.24795C31.6307 8.86395 31.8867 8.52795 32.1107 8.23995C32.3507 7.93595 32.4947 7.75195 32.5427 7.68795C32.6707 7.55995 32.8627 7.49595 33.1187 7.49595C33.2467 7.49595 33.3587 7.52795 33.4547 7.59195C33.5667 7.63995 33.6227 7.72795 33.6227 7.85595C33.6227 7.96795 33.5427 8.15995 33.3827 8.43195C33.2387 8.68795 33.0627 8.97595 32.8547 9.29595C32.6467 9.59995 32.4467 9.87995 32.2547 10.136C32.0627 10.392 31.9267 10.584 31.8467 10.712C31.7827 10.824 31.6627 11.04 31.4867 11.36C31.3107 11.664 31.1187 12.024 30.9107 12.44C30.7187 12.84 30.5507 13.232 30.4067 13.616C30.2627 14 30.1907 14.32 30.1907 14.576C30.1907 14.864 30.3107 15.008 30.5507 15.008C30.8067 15.008 31.1027 14.848 31.4387 14.528C31.7747 14.208 32.1267 13.816 32.4947 13.352C32.8627 12.872 33.2067 12.4 33.5267 11.936C33.8467 11.456 34.1187 11.056 34.3427 10.736C34.4067 10.656 34.4707 10.608 34.5347 10.592C34.5987 10.576 34.6467 10.568 34.6787 10.568C34.8387 10.568 34.9347 10.664 34.9667 10.856C34.9667 10.904 34.9107 11.04 34.7987 11.264C34.6867 11.488 34.5747 11.672 34.4627 11.816C34.3187 12.024 34.0947 12.344 33.7907 12.776C33.5027 13.192 33.1667 13.64 32.7827 14.12C32.4147 14.584 32.0067 15 31.5587 15.368C31.2707 15.608 30.9107 15.728 30.4787 15.728Z" fill="#4B4B4B"/>
<path d="M37.0286 15.536C36.7246 15.536 36.4606 15.44 36.2366 15.248C36.0286 15.056 35.9246 14.752 35.9246 14.336C35.9246 14 35.9886 13.656 36.1166 13.304C36.2446 12.936 36.3646 12.648 36.4766 12.44C36.7326 11.928 37.0046 11.456 37.2926 11.024C37.5806 10.576 37.7966 10.256 37.9406 10.064C37.6526 10.08 37.3086 10.008 36.9086 9.84795C36.5246 9.68795 36.2526 9.47995 36.0926 9.22395C35.8846 9.52795 35.5886 10.024 35.2046 10.712C34.8206 11.384 34.3326 12.096 33.7406 12.848C33.6446 12.976 33.5326 13.04 33.4046 13.04C33.1646 13.04 33.0446 12.936 33.0446 12.728C33.0446 12.648 33.0686 12.576 33.1166 12.512C33.3566 12.176 33.6526 11.744 34.0046 11.216C34.3726 10.672 34.7246 10.112 35.0606 9.53595C35.4126 8.94395 35.6926 8.41595 35.9006 7.95195C35.9646 7.80795 36.0286 7.65595 36.0926 7.49595C36.1726 7.33595 36.2446 7.18395 36.3086 7.03995C36.3726 6.92795 36.4606 6.83195 36.5726 6.75195C36.6846 6.65595 36.8126 6.60795 36.9566 6.60795C37.0846 6.60795 37.2126 6.66395 37.3406 6.77595C37.4686 6.87195 37.5326 6.98395 37.5326 7.11195C37.5326 7.25595 37.4766 7.43995 37.3646 7.66395C37.2686 7.87195 37.1646 8.08795 37.0526 8.31195C36.9406 8.53595 36.8846 8.73595 36.8846 8.91195C36.8846 9.05595 37.0046 9.15195 37.2446 9.19995C37.4846 9.24795 37.6606 9.27195 37.7726 9.27195C38.2046 9.27195 38.5646 9.18395 38.8526 9.00795C39.1406 8.83195 39.3406 8.74395 39.4526 8.74395C39.5486 8.74395 39.6286 8.78395 39.6926 8.86395C39.7726 8.92795 39.8126 8.99995 39.8126 9.07995C39.8126 9.19195 39.7646 9.28795 39.6686 9.36795C39.4446 9.57595 39.1806 9.87195 38.8766 10.256C38.5726 10.64 38.2686 11.056 37.9646 11.504C37.6606 11.952 37.3966 12.392 37.1726 12.824C37.1086 12.984 37.0126 13.208 36.8846 13.496C36.7726 13.784 36.7166 14.056 36.7166 14.312C36.7166 14.744 36.8686 14.96 37.1726 14.96C37.3006 14.96 37.4446 14.912 37.6046 14.816C37.7806 14.72 37.9486 14.608 38.1086 14.48C38.4926 14.128 38.8286 13.784 39.1166 13.448C39.4206 13.096 39.7246 12.704 40.0286 12.272C40.3326 11.84 40.6846 11.32 41.0846 10.712C41.1486 10.6 41.2606 10.544 41.4206 10.544C41.6286 10.544 41.7326 10.64 41.7326 10.832C41.7326 10.928 41.6846 11.064 41.5886 11.24C41.3646 11.64 41.0686 12.08 40.7006 12.56C40.3486 13.04 39.9806 13.496 39.5966 13.928C39.2286 14.344 38.9006 14.664 38.6126 14.888C38.1006 15.32 37.5726 15.536 37.0286 15.536Z" fill="#4B4B4B"/>
<path d="M44.7626 5.40795C44.6826 5.40795 44.5946 5.39195 44.4986 5.35995C44.4026 5.32795 44.3546 5.25595 44.3546 5.14395C44.3546 5.06395 44.3786 4.99195 44.4266 4.92795C44.5546 4.68795 44.7866 4.47995 45.1226 4.30395C45.4746 4.12795 45.7386 4.03995 45.9146 4.03995C45.9946 4.03995 46.0826 4.06395 46.1786 4.11195C46.2746 4.14395 46.3226 4.21595 46.3226 4.32795C46.3226 4.59995 46.1546 4.84795 45.8186 5.07195C45.4986 5.29595 45.1466 5.40795 44.7626 5.40795ZM42.0746 15.224C41.5306 15.224 41.0986 15.072 40.7786 14.768C40.4586 14.464 40.2986 14.04 40.2986 13.496C40.2986 13.176 40.3306 12.864 40.3946 12.56C40.4586 12.24 40.5466 11.928 40.6586 11.624C40.7226 11.448 40.8506 11.16 41.0426 10.76C41.2506 10.344 41.4906 9.91195 41.7626 9.46395C42.0346 8.99995 42.2986 8.60795 42.5546 8.28795C42.8106 7.96795 43.0346 7.80795 43.2266 7.80795C43.3066 7.80795 43.4106 7.83995 43.5386 7.90395C43.6826 7.95195 43.7546 8.03195 43.7546 8.14395C43.7546 8.20795 43.7226 8.28795 43.6586 8.38395C43.2906 8.79995 42.9066 9.29595 42.5066 9.87195C42.1066 10.448 41.7706 11.048 41.4986 11.672C41.2266 12.296 41.0906 12.896 41.0906 13.472C41.0906 14.208 41.4426 14.576 42.1466 14.576C42.6266 14.576 43.1066 14.344 43.5866 13.88C44.0826 13.416 44.6266 12.792 45.2186 12.008C45.3946 11.784 45.5466 11.568 45.6746 11.36C45.8186 11.136 45.9466 10.944 46.0586 10.784C46.1706 10.672 46.2906 10.616 46.4186 10.616C46.6106 10.616 46.7066 10.688 46.7066 10.832C46.7066 11.008 46.5786 11.288 46.3226 11.672C46.0666 12.056 45.7786 12.456 45.4586 12.872C44.8346 13.64 44.2906 14.224 43.8266 14.624C43.3626 15.024 42.7786 15.224 42.0746 15.224Z" fill="#4B4B4B"/>
<path d="M48.7708 15.536C48.4668 15.536 48.2028 15.44 47.9788 15.248C47.7708 15.056 47.6668 14.752 47.6668 14.336C47.6668 14 47.7308 13.656 47.8588 13.304C47.9868 12.936 48.1068 12.648 48.2188 12.44C48.4748 11.928 48.7468 11.456 49.0348 11.024C49.3228 10.576 49.5388 10.256 49.6828 10.064C49.3948 10.08 49.0508 10.008 48.6508 9.84795C48.2668 9.68795 47.9948 9.47995 47.8348 9.22395C47.6268 9.52795 47.3308 10.024 46.9468 10.712C46.5628 11.384 46.0748 12.096 45.4828 12.848C45.3868 12.976 45.2748 13.04 45.1468 13.04C44.9068 13.04 44.7868 12.936 44.7868 12.728C44.7868 12.648 44.8108 12.576 44.8588 12.512C45.0988 12.176 45.3948 11.744 45.7468 11.216C46.1148 10.672 46.4668 10.112 46.8028 9.53595C47.1548 8.94395 47.4348 8.41595 47.6428 7.95195C47.7068 7.80795 47.7708 7.65595 47.8348 7.49595C47.9148 7.33595 47.9868 7.18395 48.0508 7.03995C48.1148 6.92795 48.2028 6.83195 48.3148 6.75195C48.4268 6.65595 48.5548 6.60795 48.6988 6.60795C48.8268 6.60795 48.9548 6.66395 49.0828 6.77595C49.2108 6.87195 49.2748 6.98395 49.2748 7.11195C49.2748 7.25595 49.2188 7.43995 49.1068 7.66395C49.0108 7.87195 48.9068 8.08795 48.7948 8.31195C48.6828 8.53595 48.6268 8.73595 48.6268 8.91195C48.6268 9.05595 48.7468 9.15195 48.9868 9.19995C49.2268 9.24795 49.4028 9.27195 49.5148 9.27195C49.9468 9.27195 50.3068 9.18395 50.5948 9.00795C50.8828 8.83195 51.0828 8.74395 51.1948 8.74395C51.2908 8.74395 51.3708 8.78395 51.4348 8.86395C51.5148 8.92795 51.5548 8.99995 51.5548 9.07995C51.5548 9.19195 51.5068 9.28795 51.4108 9.36795C51.1868 9.57595 50.9228 9.87195 50.6188 10.256C50.3148 10.64 50.0108 11.056 49.7068 11.504C49.4028 11.952 49.1388 12.392 48.9148 12.824C48.8508 12.984 48.7548 13.208 48.6268 13.496C48.5148 13.784 48.4588 14.056 48.4588 14.312C48.4588 14.744 48.6108 14.96 48.9148 14.96C49.0428 14.96 49.1868 14.912 49.3468 14.816C49.5228 14.72 49.6908 14.608 49.8508 14.48C50.2348 14.128 50.5708 13.784 50.8588 13.448C51.1628 13.096 51.4668 12.704 51.7708 12.272C52.0748 11.84 52.4268 11.32 52.8268 10.712C52.8908 10.6 53.0028 10.544 53.1628 10.544C53.3708 10.544 53.4748 10.64 53.4748 10.832C53.4748 10.928 53.4268 11.064 53.3308 11.24C53.1068 11.64 52.8108 12.08 52.4428 12.56C52.0908 13.04 51.7228 13.496 51.3388 13.928C50.9708 14.344 50.6428 14.664 50.3548 14.888C49.8428 15.32 49.3148 15.536 48.7708 15.536Z" fill="#4B4B4B"/>
<path d="M54.4888 15.44C53.6568 15.44 53.0728 15.2 52.7368 14.72C52.4168 14.224 52.2568 13.648 52.2568 12.992C52.2568 12.512 52.3768 11.944 52.6168 11.288C52.8568 10.616 53.1848 9.95995 53.6008 9.31995C54.0328 8.67995 54.5288 8.15195 55.0888 7.73595C55.6488 7.30395 56.2488 7.08795 56.8888 7.08795C57.3048 7.08795 57.6328 7.20795 57.8728 7.44795C58.1288 7.67195 58.2568 7.95995 58.2568 8.31195C58.2568 8.98395 58.0408 9.63195 57.6088 10.256C57.1768 10.88 56.6168 11.392 55.9288 11.792C55.2408 12.192 54.5048 12.392 53.7208 12.392C53.6248 12.392 53.5288 12.392 53.4328 12.392C53.3368 12.376 53.2408 12.36 53.1448 12.344C53.0968 12.552 53.0728 12.792 53.0728 13.064C53.0728 13.48 53.1688 13.864 53.3608 14.216C53.5688 14.568 53.9608 14.744 54.5368 14.744C55.0168 14.744 55.4808 14.624 55.9288 14.384C56.3768 14.144 56.7528 13.872 57.0568 13.568C57.3608 13.264 57.6168 12.992 57.8248 12.752C58.0328 12.512 58.2488 12.24 58.4728 11.936C58.6968 11.616 58.9768 11.2 59.3128 10.688C59.3768 10.576 59.4728 10.52 59.6008 10.52C59.8248 10.52 59.9368 10.64 59.9368 10.88C59.9368 10.96 59.9208 11.024 59.8888 11.072C59.4568 11.808 58.9768 12.512 58.4488 13.184C57.9208 13.84 57.3288 14.384 56.6728 14.816C56.0328 15.232 55.3048 15.44 54.4888 15.44ZM53.8888 11.648C54.4968 11.648 55.0648 11.488 55.5928 11.168C56.1368 10.832 56.5768 10.416 56.9128 9.91995C57.2648 9.42395 57.4408 8.91995 57.4408 8.40795C57.4408 8.23195 57.3928 8.08795 57.2968 7.97595C57.2168 7.86395 57.0728 7.80795 56.8648 7.80795C56.4488 7.80795 56.0488 7.95195 55.6648 8.23995C55.2808 8.51195 54.9288 8.86395 54.6088 9.29595C54.3048 9.71195 54.0408 10.128 53.8168 10.544C53.6088 10.96 53.4568 11.312 53.3608 11.6C53.4408 11.616 53.5208 11.632 53.6008 11.648C53.6968 11.648 53.7928 11.648 53.8888 11.648Z" fill="#4B4B4B"/>
</svg>
